<svg xmlns="http://www.w3.org/2000/svg" xmlns:xlink="http://www.w3.org/1999/xlink" viewBox="0 0 864.09 729.07"><defs><style>.cls-1,.cls-5{fill:none;}.cls-2,.cls-5{opacity:0.24;}.cls-3{clip-path:url(#clip-path);}.cls-4{clip-path:url(#clip-path-2);}.cls-5{stroke:#1d1d1b;stroke-miterlimit:10;stroke-width:7px;}</style><clipPath id="clip-path"><rect class="cls-1" x="53.92" y="433.02" width="236.88" height="237.84"/></clipPath><clipPath id="clip-path-2"><rect class="cls-1" x="573.29" y="61.02" width="236.88" height="237.84"/></clipPath></defs><title>vzorek</title><g id="Vrstva_1" data-name="Vrstva 1"><g class="cls-2"><path d="M109.62,469.43a8.45,8.45,0,0,0-5.39-13,.82.82,0,0,1-.65-.66,8.45,8.45,0,0,0-13-5.39.81.81,0,0,1-.93,0,8.46,8.46,0,0,0-13,5.39.82.82,0,0,1-.66.65,8.46,8.46,0,0,0-5.39,13,.83.83,0,0,1,0,.93,8.45,8.45,0,0,0,5.39,13,.82.82,0,0,1,.65.66,8.45,8.45,0,0,0,13,5.38.82.82,0,0,1,.93,0,8.43,8.43,0,0,0,4.71,1.44,8.52,8.52,0,0,0,3.24-.65,8.42,8.42,0,0,0,5.06-6.18.82.82,0,0,1,.66-.65,8.45,8.45,0,0,0,5.38-13,.83.83,0,0,1,0-.93Zm-6.32,5.18a.83.83,0,0,1-.52,1.28,8.4,8.4,0,0,0-6.67,6.66.8.8,0,0,1-.5.61.79.79,0,0,1-.78-.08,8.42,8.42,0,0,0-9.42,0,.79.79,0,0,1-.78.08.8.8,0,0,1-.5-.6,8.4,8.4,0,0,0-6.66-6.67.83.83,0,0,1-.53-1.28,8.43,8.43,0,0,0,0-9.43.83.83,0,0,1,.52-1.28,8.4,8.4,0,0,0,6.67-6.66.83.83,0,0,1,1.28-.53,8.42,8.42,0,0,0,9.43,0,.82.82,0,0,1,.78-.08.81.81,0,0,1,.5.6,8.4,8.4,0,0,0,6.66,6.67.83.83,0,0,1,.53,1.28,8.42,8.42,0,0,0,0,9.43Zm0,0"/><g class="cls-3"><path d="M273.43,634.17a.82.82,0,0,1,0-.93,8.45,8.45,0,0,0-5.39-13,.82.82,0,0,1-.65-.66,8.45,8.45,0,0,0-13-5.38.82.82,0,0,1-.93,0,8.45,8.45,0,0,0-13,5.39.82.82,0,0,1-.66.65,8.45,8.45,0,0,0-5.38,13,.84.84,0,0,1,0,.93,8.45,8.45,0,0,0,5.39,13,.82.82,0,0,1,.65.66,8.46,8.46,0,0,0,13,5.38.82.82,0,0,1,.93,0,8.43,8.43,0,0,0,4.71,1.44,8.52,8.52,0,0,0,3.24-.65,8.42,8.42,0,0,0,5.06-6.18.82.82,0,0,1,.66-.65,8.45,8.45,0,0,0,5.38-13Zm-6.32,4.25a.83.83,0,0,1-.52,1.28,8.4,8.4,0,0,0-6.67,6.66.83.83,0,0,1-1.28.53,8.43,8.43,0,0,0-9.43,0,.78.78,0,0,1-.78.08.81.81,0,0,1-.5-.6,8.39,8.39,0,0,0-6.66-6.67.83.83,0,0,1-.53-1.28,8.43,8.43,0,0,0,0-9.43.83.83,0,0,1,.52-1.28,8.4,8.4,0,0,0,6.67-6.66.8.8,0,0,1,.5-.61.79.79,0,0,1,.78.08,8.42,8.42,0,0,0,9.43,0,.83.83,0,0,1,1.28.52,8.4,8.4,0,0,0,6.66,6.67.78.78,0,0,1,.61.5.79.79,0,0,1-.08.78,8.41,8.41,0,0,0,0,9.43Zm0,0"/><path d="M253.92,597.52A35.7,35.7,0,0,0,243.67,599L196.45,551.8l47.23-47.22a36.14,36.14,0,0,0,44.14-47.28l-2.07-5.56-25.32,25.32a3.8,3.8,0,0,1-5.39,0l-8.27-8.27a3.81,3.81,0,0,1,0-5.39l25.32-25.32L266.52,436a36.14,36.14,0,0,0-47.28,44.14L172,527.36l-47.23-47.22a35.71,35.71,0,0,0,1.51-10.25,36.19,36.19,0,1,0-36.19,36.19,35.72,35.72,0,0,0,10.25-1.51l47.22,47.22L100.35,599a36.14,36.14,0,0,0-44.14,47.29l2.07,5.56L83.6,626.55a3.81,3.81,0,0,1,5.39,0l8.27,8.28a3.81,3.81,0,0,1,0,5.39L71.94,665.54l5.56,2.07a36.13,36.13,0,0,0,12.61,2.29A36.72,36.72,0,0,0,101.58,668a36.14,36.14,0,0,0,23.21-44.57L172,576.24l47.23,47.22a35.7,35.7,0,0,0-1.51,10.25,36.19,36.19,0,1,0,36.19-36.19ZM102.35,495.8l-2.29.85a28.69,28.69,0,1,1,16.8-16.81l-.85,2.29,50.62,50.62L153,546.41Zm64.28,75.05L116,621.47l.86,2.29A28.55,28.55,0,0,1,86.24,662l16.42-16.42a11.41,11.41,0,0,0,0-16.16l-8.27-8.27a11.7,11.7,0,0,0-16.16,0L61.81,637.58A28.53,28.53,0,0,1,100.06,607l2.29.85L153,557.19,228,482.14l-.85-2.29a28.55,28.55,0,0,1,30.62-38.25L241.37,458a11.43,11.43,0,0,0,0,16.16l8.28,8.27a11.7,11.7,0,0,0,16.16,0L282.22,466A28.53,28.53,0,0,1,244,496.65l-2.29-.85-50.61,50.62Zm87.29,91.43a28.5,28.5,0,0,1-26.75-38.52l.85-2.29-50.61-50.62,13.66-13.66,50.62,50.61L244,607a28.56,28.56,0,1,1,9.95,55.32Zm0,0"/></g></g><g class="cls-2"><path d="M629,97.43a8.45,8.45,0,0,0-5.39-13,.82.82,0,0,1-.65-.66,8.45,8.45,0,0,0-13-5.39.81.81,0,0,1-.93,0,8.46,8.46,0,0,0-13,5.39.82.82,0,0,1-.66.65,8.46,8.46,0,0,0-5.39,13,.83.83,0,0,1,0,.93,8.45,8.45,0,0,0,5.39,13,.82.82,0,0,1,.65.66,8.45,8.45,0,0,0,13,5.38.82.82,0,0,1,.93,0,8.43,8.43,0,0,0,4.71,1.44,8.52,8.52,0,0,0,3.24-.65,8.42,8.42,0,0,0,5.06-6.18.82.82,0,0,1,.66-.65,8.45,8.45,0,0,0,5.38-13,.83.83,0,0,1,0-.93Zm-6.32,5.18a.83.83,0,0,1-.52,1.28,8.4,8.4,0,0,0-6.67,6.66.8.8,0,0,1-.5.61.79.79,0,0,1-.78-.08,8.42,8.42,0,0,0-9.42,0,.79.79,0,0,1-.78.08.8.8,0,0,1-.5-.6,8.4,8.4,0,0,0-6.66-6.67.83.83,0,0,1-.53-1.28,8.43,8.43,0,0,0,0-9.43.83.83,0,0,1,.52-1.28,8.4,8.4,0,0,0,6.67-6.66.83.83,0,0,1,1.28-.53,8.42,8.42,0,0,0,9.43,0,.82.82,0,0,1,.78-.08.81.81,0,0,1,.5.6,8.4,8.4,0,0,0,6.66,6.67.83.83,0,0,1,.53,1.28,8.42,8.42,0,0,0,0,9.43Zm0,0"/><g class="cls-4"><path d="M792.8,262.17a.82.82,0,0,1,0-.93,8.45,8.45,0,0,0-5.39-13,.82.82,0,0,1-.65-.66,8.45,8.45,0,0,0-13-5.38.82.82,0,0,1-.93,0,8.45,8.45,0,0,0-13,5.39.82.82,0,0,1-.66.65,8.45,8.45,0,0,0-5.38,13,.84.84,0,0,1,0,.93,8.45,8.45,0,0,0,5.39,13,.82.82,0,0,1,.65.66,8.46,8.46,0,0,0,13,5.38.82.82,0,0,1,.93,0,8.43,8.43,0,0,0,4.71,1.44,8.52,8.52,0,0,0,3.24-.65,8.42,8.42,0,0,0,5.06-6.18.82.82,0,0,1,.66-.65,8.45,8.45,0,0,0,5.38-13Zm-6.32,4.25a.83.83,0,0,1-.52,1.28,8.4,8.4,0,0,0-6.67,6.66.83.83,0,0,1-1.28.53,8.43,8.43,0,0,0-9.43,0,.78.78,0,0,1-.78.08.81.81,0,0,1-.5-.6,8.39,8.39,0,0,0-6.66-6.67.83.83,0,0,1-.53-1.28,8.43,8.43,0,0,0,0-9.43.83.83,0,0,1,.52-1.28A8.4,8.4,0,0,0,767.3,249a.8.8,0,0,1,.5-.61.79.79,0,0,1,.78.08,8.42,8.42,0,0,0,9.43,0,.83.83,0,0,1,1.28.52,8.4,8.4,0,0,0,6.66,6.67.78.78,0,0,1,.61.5.79.79,0,0,1-.08.78,8.41,8.41,0,0,0,0,9.43Zm0,0"/><path d="M773.29,225.52A35.7,35.7,0,0,0,763,227L715.82,179.8,763,132.58a36.14,36.14,0,0,0,44.14-47.28l-2.07-5.56-25.32,25.32a3.8,3.8,0,0,1-5.39,0l-8.27-8.27a3.81,3.81,0,0,1,0-5.39l25.32-25.32L785.89,64a36.14,36.14,0,0,0-47.28,44.14l-47.22,47.22-47.23-47.22a35.71,35.71,0,0,0,1.51-10.25,36.19,36.19,0,1,0-36.19,36.19,35.72,35.72,0,0,0,10.25-1.51l47.22,47.22L619.72,227a36.14,36.14,0,0,0-44.14,47.29l2.07,5.56L603,254.55a3.81,3.81,0,0,1,5.39,0l8.27,8.28a3.81,3.81,0,0,1,0,5.39l-25.32,25.32,5.56,2.07a36.13,36.13,0,0,0,12.61,2.29A36.72,36.72,0,0,0,620.95,296a36.14,36.14,0,0,0,23.21-44.57l47.22-47.23,47.23,47.22a35.7,35.7,0,0,0-1.51,10.25,36.19,36.19,0,1,0,36.19-36.19ZM621.72,123.8l-2.29.85a28.69,28.69,0,1,1,16.8-16.81l-.85,2.29L686,160.76l-13.66,13.66ZM686,198.85l-50.62,50.62.86,2.29A28.55,28.55,0,0,1,605.61,290L622,273.6a11.41,11.41,0,0,0,0-16.16l-8.27-8.27a11.7,11.7,0,0,0-16.16,0l-16.42,16.42A28.53,28.53,0,0,1,619.43,235l2.29.85,50.61-50.62,75.05-75.05-.85-2.29a28.55,28.55,0,0,1,30.62-38.25L760.74,86a11.43,11.43,0,0,0,0,16.16l8.28,8.27a11.7,11.7,0,0,0,16.16,0L801.59,94a28.53,28.53,0,0,1-38.26,30.62L761,123.8l-50.61,50.62Zm87.29,91.43a28.5,28.5,0,0,1-26.75-38.52l.85-2.29-50.61-50.62,13.66-13.66L761,235.81l2.29-.85a28.56,28.56,0,1,1,9.95,55.32Zm0,0"/></g></g><line class="cls-5" x1="578.19" y1="664.09" x2="809.71" y2="432.57"/><line class="cls-5" x1="807.49" y1="664.09" x2="575.97" y2="432.57"/><line class="cls-5" x1="57.71" y1="295.7" x2="289.23" y2="64.18"/><line class="cls-5" x1="287.01" y1="295.7" x2="55.49" y2="64.18"/><line class="cls-5" x1="346.96" y1="551.94" x2="508.96" y2="551.94"/><line class="cls-5" x1="427.96" y1="306.46" x2="427.96" y2="448.95"/><line class="cls-5" x1="346.96" y1="184.21" x2="508.96" y2="184.21"/><line class="cls-5" x1="427.96" y1="-65.54" x2="427.96" y2="76.95"/><line class="cls-5" x1="427.96" y1="666.53" x2="427.96" y2="809.02"/></g></svg>
