<svg xmlns="http://www.w3.org/2000/svg" viewBox="0 0 1063.79 1063.79"><defs><style>.cls-1{fill:#fff;}</style></defs><title>Datový zdroj 1</title><g id="Vrstva_2" data-name="Vrstva 2"><g id="Layer_1" data-name="Layer 1"><path class="cls-1" d="M771,606.28,688.14,296.62a30.19,30.19,0,0,0-58.32,0l-68,254.07a74.08,74.08,0,0,0-16.78-7.05,148.75,148.75,0,0,0,12-58.51c0-81.91-66.64-148.54-148.54-148.54S260,403.22,260,485.13c0,78,60.42,142.13,136.92,148.09v95.64H358.45a11.64,11.64,0,1,0,0,23.27H679.13a11.64,11.64,0,0,0,0-23.27H666.29v-84.6H741.8a30.18,30.18,0,0,0,29.15-38Zm-235.6,38.2h0V600.76a10.47,10.47,0,0,0-20.95,0v18.43l-4.11-4.11a10.47,10.47,0,1,0-14.81,14.81l18.92,18.92V665.7a51.33,51.33,0,0,1,10.47-101.59c.81,0,2.61.07,2.71.07a51.33,51.33,0,0,1,7.76,101.51V644.48ZM283.27,485.13A125.28,125.28,0,1,1,520.7,541a74.73,74.73,0,0,0-69.35,61.94,124,124,0,0,1-31.17,7V570.38h0v-44.7l32.45-32.45a11.64,11.64,0,0,0-16.46-16.46l-16,16V455.42a11.64,11.64,0,0,0-23.27,0v65.42h0v21.43L369,514.34a11.64,11.64,0,1,0-16.46,16.46l44.41,44.41v34.66C333.27,604,283.27,550.28,283.27,485.13Zm136.92,148.1a147.26,147.26,0,0,0,31.07-5.79,74.76,74.76,0,0,0,63.15,61.86v39.57H420.18V633.23ZM643,728.86H535.35V689.3a74.81,74.81,0,0,0,58.34-45H643v84.6ZM747.28,618.29a6.78,6.78,0,0,1-5.48,2.7H666.29V592.73h0V557.29L692,531.56a11.64,11.64,0,0,0-16.46-16.46l-9.27,9.27V492A11.64,11.64,0,1,0,643,492v60.48h0v12.15l-19-19a11.64,11.64,0,0,0-16.46,16.46L643,597.54V621H599.26c.13-1.83.23-3.68.23-5.54a74.25,74.25,0,0,0-17.9-48.4l70.72-264.4a6.91,6.91,0,0,1,13.35,0l82.82,309.65A6.78,6.78,0,0,1,747.28,618.29Z"/><path class="cls-1" d="M531.9,1063.79a532,532,0,0,1-207-1022A532,532,0,0,1,738.94,1022,528.58,528.58,0,0,1,531.9,1063.79ZM531.9,20C249.64,20,20,249.64,20,531.9s229.64,511.9,511.9,511.9,511.9-229.64,511.9-511.9S814.16,20,531.9,20Z"/></g></g></svg>