<svg xmlns="http://www.w3.org/2000/svg" viewBox="0 0 1063.79 1063.79"><defs><style>.cls-1,.cls-2{fill:#fff;}.cls-1{stroke:#fff;stroke-miterlimit:10;stroke-width:6px;}</style></defs><title>Datový zdroj 3</title><g id="Vrstva_2" data-name="Vrstva 2"><g id="Layer_1" data-name="Layer 1"><path class="cls-1" d="M737.11,506.86a12.2,12.2,0,0,0-12.2,12.21V736.56h-131V600a12.2,12.2,0,0,0-12.21-12.2H486.08a12.2,12.2,0,0,0-12.2,12.2V708.28a12.2,12.2,0,1,0,24.41,0v-96H569.5V736.56H342.89V437.76l191-153.08L729.48,441.43a12.21,12.21,0,0,0,15.27-19.05L541.52,259.51a12.19,12.19,0,0,0-15.26,0L323,422.37a12.2,12.2,0,0,0-4.57,9.53V748.76A12.21,12.21,0,0,0,330.68,761H737.11a12.21,12.21,0,0,0,12.21-12.21V519.07a12.21,12.21,0,0,0-12.21-12.21Zm0,0"/><path class="cls-2" d="M531.9,1063.79a532,532,0,0,1-207-1022A532,532,0,0,1,738.94,1022,528.58,528.58,0,0,1,531.9,1063.79ZM531.9,20C249.64,20,20,249.64,20,531.9s229.64,511.9,511.9,511.9,511.9-229.64,511.9-511.9S814.16,20,531.9,20Z"/></g></g></svg>