<svg xmlns="http://www.w3.org/2000/svg" viewBox="0 0 1063.79 1063.79"><defs><style>.cls-1{fill:#fff;}</style></defs><title>Datový zdroj 2</title><g id="Vrstva_2" data-name="Vrstva 2"><g id="Layer_1" data-name="Layer 1"><path class="cls-1" d="M790.18,642a71.17,71.17,0,0,0,71.09-71.09V529.2a27.76,27.76,0,0,0-.64-4l-63-203.92a13.13,13.13,0,0,0-21.25-6L639.22,436.73V369.25a13.15,13.15,0,0,0-13.13-13.13H476.25a13.1,13.1,0,0,0-13,11.7L447.67,510.15h-88V417.62a13.13,13.13,0,1,0-26.26,0v92.53H263.9A13.13,13.13,0,0,0,251,526l16.54,78.59-1.91,1.69A83.21,83.21,0,1,0,404,668.79v-4.37h57l1,3.05A120.82,120.82,0,1,0,675,560.16l-1.37-1.89.81-2.19L737.51,384.8l41.06-36.35,53,171.75-4.7,1a178.92,178.92,0,0,1-90.73-4.51A13.13,13.13,0,0,0,719.1,529.2v41.67A71.17,71.17,0,0,0,790.18,642ZM585,382.38h28V510.14H585Zm-96.93,0H558.7V510.14H474.09ZM320.8,725.54a57,57,0,1,1,57-57A57,57,0,0,1,320.8,725.54ZM456.36,631c0,.64,0,1.27,0,1.9l.07,5.29H398.32l-1.14-2.63a83.26,83.26,0,0,0-101.11-46.45l-4.6,1.43-11.38-54.1H501.29l-7.83,7.53A119.79,119.79,0,0,0,456.36,631Zm120.83,94.56A94.56,94.56,0,1,1,671.75,631,94.67,94.67,0,0,1,577.19,725.54Zm76.26-188.41-4.69-3.44c-2.5-1.83-5-3.55-7.48-5.09l-2.05-1.29v-55.5L696,421.55Zm91.91,9.29,5.23,1a202.89,202.89,0,0,0,79.19,0l5.23-1v24.46a44.82,44.82,0,1,1-89.65,0Z"/><path class="cls-1" d="M579.24,582.36a55.94,55.94,0,1,0,55.94,55.93A56,56,0,0,0,579.24,582.36Zm0,83.67A27.73,27.73,0,1,1,607,638.3,27.76,27.76,0,0,1,579.24,666Z"/><path class="cls-1" d="M303.89,664.57a14.1,14.1,0,1,0,10,4.13A14.13,14.13,0,0,0,303.89,664.57Z"/><path class="cls-1" d="M531.9,1063.79a532,532,0,0,1-207-1022A532,532,0,0,1,738.94,1022,528.58,528.58,0,0,1,531.9,1063.79ZM531.9,20C249.64,20,20,249.64,20,531.9s229.64,511.9,511.9,511.9,511.9-229.64,511.9-511.9S814.16,20,531.9,20Z"/></g></g></svg>