<?xml version="1.0" encoding="iso-8859-1"?>
<!-- Generator: Adobe Illustrator 16.0.0, SVG Export Plug-In . SVG Version: 6.00 Build 0)  -->
<!DOCTYPE svg PUBLIC "-//W3C//DTD SVG 1.1//EN" "http://www.w3.org/Graphics/SVG/1.1/DTD/svg11.dtd">
<svg xmlns="http://www.w3.org/2000/svg" xmlns:xlink="http://www.w3.org/1999/xlink" version="1.1" id="Capa_1" x="0px" y="0px" width="512px" height="512px" viewBox="0 0 611.989 611.989" style="enable-background:new 0 0 611.989 611.989;" xml:space="preserve">
<g>
  <g id="Shape_17">
  <g>
  <path d="M305.995,0C137.277,0,0,137.277,0,305.995s137.277,305.995,305.995,305.995c168.728,0,305.995-137.277,305.995-305.995     C612,137.277,474.723,0,305.995,0z M305.995,589.631c-156.397,0-283.636-127.239-283.636-283.636     c0-156.397,127.25-283.636,283.636-283.636c156.397,0,283.636,127.239,283.636,283.636     C589.631,462.392,462.392,589.631,305.995,589.631z M305.995,79.039c-124.312,0-225.454,102.454-225.454,225.442h22.358     c0-111.814,91.103-203.083,203.084-203.083c111.98,0,203.084,91.27,203.084,203.083h22.358     C531.447,181.493,430.317,79.039,305.995,79.039z M304.937,255.312c-51.761-87.82-59.83-87.82-67.62-87.82l-3.239,0.156     l-2.271,1.08c-10.939,5.197-15.414,12.821,19.833,109.01c16.682,45.529,36.236,93.629,39.686,100.896     c5.943,12.554,18.764,20.656,32.652,20.656h0.012c5.364,0,10.562-1.169,15.436-3.483c8.726-4.129,15.314-11.408,18.553-20.5     c3.238-9.081,2.76-18.887-1.38-27.601C353.305,340.717,329.121,296.346,304.937,255.312z M336.922,367.783     c-1.246,3.461-3.739,6.232-7.066,7.812c-1.87,0.868-3.84,1.324-5.876,1.324c-5.309,0-10.184-3.083-12.454-7.868     c-7.601-16.037-42.613-104.825-57.982-154.472c28.702,43.326,75.255,126.649,82.856,142.686     C337.969,360.594,338.157,364.333,336.922,367.783z" fill="#FFFFFF"/>
  </g>
  </g>
</g>
<g>
</g>
<g>
</g>
<g>
</g>
<g>
</g>
<g>
</g>
<g>
</g>
<g>
</g>
<g>
</g>
<g>
</g>
<g>
</g>
<g>
</g>
<g>
</g>
<g>
</g>
<g>
</g>
<g>
</g>
</svg>
