<svg id="Vrstva_1" data-name="Vrstva 1" xmlns="http://www.w3.org/2000/svg" xmlns:xlink="http://www.w3.org/1999/xlink" viewBox="0 0 1920 2072"><defs><style>.cls-1{fill:url(#Nepojmenovaný_přechod_85);}.cls-2{fill:url(#Nepojmenovaný_přechod_64);}.cls-3{fill:url(#Nepojmenovaný_přechod_64-2);}.cls-4{fill:url(#Nepojmenovaný_přechod_64-3);}.cls-5{fill:url(#Nepojmenovaný_přechod_64-4);}.cls-6{fill:url(#Nepojmenovaný_přechod_64-5);}.cls-7{fill:url(#Nepojmenovaný_přechod_64-6);}.cls-8{fill:url(#Nepojmenovaný_přechod_64-7);}.cls-9{fill:url(#Nepojmenovaný_přechod_64-8);}.cls-10{fill:url(#Nepojmenovaný_přechod_64-9);}.cls-11{fill:url(#Nepojmenovaný_přechod_64-10);}.cls-12{fill:url(#Nepojmenovaný_přechod_64-11);}.cls-13{fill:url(#Nepojmenovaný_přechod_64-12);}.cls-14{fill:url(#Nepojmenovaný_přechod_64-13);}.cls-15{fill:url(#Nepojmenovaný_přechod_64-14);}.cls-16{fill:url(#Nepojmenovaný_přechod_64-15);}.cls-17{fill:url(#Nepojmenovaný_přechod_64-16);}.cls-18{fill:url(#Nepojmenovaný_přechod_64-17);}.cls-19{fill:url(#Nepojmenovaný_přechod_64-18);}.cls-20{fill:url(#Nepojmenovaný_přechod_64-19);}.cls-21{fill:url(#Nepojmenovaný_přechod_64-20);}.cls-22{fill:url(#Nepojmenovaný_přechod_64-21);}.cls-23{fill:url(#Nepojmenovaný_přechod_64-22);}.cls-24{fill:url(#Nepojmenovaný_přechod_64-23);}.cls-25{fill:url(#Nepojmenovaný_přechod_64-24);}.cls-26{fill:url(#Nepojmenovaný_přechod_64-25);}.cls-27{fill:url(#Nepojmenovaný_přechod_64-26);}.cls-28{fill:url(#Nepojmenovaný_přechod_64-27);}.cls-29{fill:url(#Nepojmenovaný_přechod_64-28);}.cls-30{fill:url(#Nepojmenovaný_přechod_64-29);}.cls-31{fill:url(#Nepojmenovaný_přechod_64-30);}.cls-32{fill:url(#Nepojmenovaný_přechod_64-31);}.cls-33{fill:url(#Nepojmenovaný_přechod_64-32);}.cls-34{fill:url(#Nepojmenovaný_přechod_64-33);}.cls-35{fill:url(#Nepojmenovaný_přechod_64-34);}.cls-36{fill:url(#Nepojmenovaný_přechod_72);}.cls-37{fill:#161616;opacity:0.29;}.cls-38{fill:#111;opacity:0.71;}.cls-39{fill:#0f0f0f;}.cls-40{opacity:0.14;}.cls-41{opacity:0.47;}.cls-42{opacity:0.8;}.cls-43,.cls-47{fill:#1d1d1d;}.cls-44,.cls-46{fill:#fff;}.cls-45{opacity:0.85;}.cls-46,.cls-47{opacity:0.3;}.cls-48{opacity:0.69;}</style><linearGradient id="Nepojmenovaný_přechod_85" x1="-41" y1="1098.5" x2="2030" y2="1098.5" gradientUnits="userSpaceOnUse"><stop offset="0" stop-color="#f9ae39"/><stop offset="0.61" stop-color="#f89621"/><stop offset="1" stop-color="#f88d17"/></linearGradient><linearGradient id="Nepojmenovaný_přechod_64" x1="1773.98" y1="1466.58" x2="1776.2" y2="1466.58" gradientUnits="userSpaceOnUse"><stop offset="0" stop-color="#0e0e0e" stop-opacity="0.3"/><stop offset="1" stop-opacity="0.6"/></linearGradient><linearGradient id="Nepojmenovaný_přechod_64-2" x1="1571.71" y1="1514.74" x2="1574.16" y2="1514.74" xlink:href="#Nepojmenovaný_přechod_64"/><linearGradient id="Nepojmenovaný_přechod_64-3" x1="1535.53" y1="1511.42" x2="1537.67" y2="1511.42" xlink:href="#Nepojmenovaný_přechod_64"/><linearGradient id="Nepojmenovaný_přechod_64-4" x1="1768.29" y1="1467.48" x2="1773.98" y2="1467.48" xlink:href="#Nepojmenovaný_přechod_64"/><linearGradient id="Nepojmenovaný_přechod_64-5" x1="1863.82" y1="1436.73" x2="1866.6" y2="1436.73" xlink:href="#Nepojmenovaný_přechod_64"/><linearGradient id="Nepojmenovaný_přechod_64-6" x1="1812.95" y1="1451.16" x2="1813.81" y2="1451.16" xlink:href="#Nepojmenovaný_přechod_64"/><linearGradient id="Nepojmenovaný_přechod_64-7" x1="1469.28" y1="1505.29" x2="1470.54" y2="1505.29" xlink:href="#Nepojmenovaný_přechod_64"/><linearGradient id="Nepojmenovaný_přechod_64-8" x1="901" y1="1420.42" x2="904.91" y2="1420.42" xlink:href="#Nepojmenovaný_přechod_64"/><linearGradient id="Nepojmenovaný_přechod_64-9" x1="1316.41" y1="1494.26" x2="1317.86" y2="1494.26" xlink:href="#Nepojmenovaný_přechod_64"/><linearGradient id="Nepojmenovaný_přechod_64-10" x1="1427.16" y1="1506.91" x2="1429.96" y2="1506.91" xlink:href="#Nepojmenovaný_přechod_64"/><linearGradient id="Nepojmenovaný_přechod_64-11" x1="1261.56" y1="1476.32" x2="1262.64" y2="1476.32" xlink:href="#Nepojmenovaný_přechod_64"/><linearGradient id="Nepojmenovaný_přechod_64-12" x1="1258.88" y1="1475.4" x2="1261.56" y2="1475.4" xlink:href="#Nepojmenovaný_přechod_64"/><linearGradient id="Nepojmenovaný_přechod_64-13" x1="1205.42" y1="1453.33" x2="1208.19" y2="1453.33" xlink:href="#Nepojmenovaný_přechod_64"/><linearGradient id="Nepojmenovaný_přechod_64-14" x1="1424.59" y1="1508.04" x2="1426.89" y2="1508.04" xlink:href="#Nepojmenovaný_přechod_64"/><linearGradient id="Nepojmenovaný_přechod_64-15" x1="188.34" y1="1364.14" x2="190.19" y2="1364.14" xlink:href="#Nepojmenovaný_přechod_64"/><linearGradient id="Nepojmenovaný_přechod_64-16" x1="364.3" y1="1445.69" x2="364.34" y2="1445.69" xlink:href="#Nepojmenovaný_přechod_64"/><linearGradient id="Nepojmenovaný_přechod_64-17" x1="434.5" y1="1418.64" x2="434.96" y2="1418.64" xlink:href="#Nepojmenovaný_přechod_64"/><linearGradient id="Nepojmenovaný_přechod_64-18" x1="1252.15" y1="1473.94" x2="1252.36" y2="1473.94" xlink:href="#Nepojmenovaný_přechod_64"/><linearGradient id="Nepojmenovaný_přechod_64-19" x1="1424.17" y1="1508.24" x2="1424.59" y2="1508.24" xlink:href="#Nepojmenovaný_přechod_64"/><linearGradient id="Nepojmenovaný_přechod_64-20" x1="1473.25" y1="1506.41" x2="1475.72" y2="1506.41" xlink:href="#Nepojmenovaný_přechod_64"/><linearGradient id="Nepojmenovaný_přechod_64-21" x1="512.8" y1="1527.37" x2="512.81" y2="1527.37" xlink:href="#Nepojmenovaný_přechod_64"/><linearGradient id="Nepojmenovaný_přechod_64-22" x1="512.47" y1="1520.48" x2="512.48" y2="1520.48" xlink:href="#Nepojmenovaný_přechod_64"/><linearGradient id="Nepojmenovaný_přechod_64-23" x1="321.61" y1="1412.17" x2="324.03" y2="1412.17" xlink:href="#Nepojmenovaný_přechod_64"/><linearGradient id="Nepojmenovaný_přechod_64-24" x1="1776.2" y1="1466.35" x2="1776.9" y2="1466.35" xlink:href="#Nepojmenovaný_přechod_64"/><linearGradient id="Nepojmenovaný_přechod_64-25" x1="1776.9" y1="1466.41" x2="1777.07" y2="1466.41" xlink:href="#Nepojmenovaný_přechod_64"/><linearGradient id="Nepojmenovaný_přechod_64-26" x1="1875.94" y1="1445.08" x2="1877.37" y2="1445.08" xlink:href="#Nepojmenovaný_přechod_64"/><linearGradient id="Nepojmenovaný_přechod_64-27" x1="1918.33" y1="1433.93" x2="1924.52" y2="1433.93" xlink:href="#Nepojmenovaný_přechod_64"/><linearGradient id="Nepojmenovaný_přechod_64-28" x1="1585.75" y1="1524.15" x2="1590.88" y2="1524.15" xlink:href="#Nepojmenovaný_přechod_64"/><linearGradient id="Nepojmenovaný_přechod_64-29" x1="1578.32" y1="1524.69" x2="1585.75" y2="1524.69" xlink:href="#Nepojmenovaný_přechod_64"/><linearGradient id="Nepojmenovaný_přechod_64-30" x1="1699.8" y1="1496.81" x2="1701.99" y2="1496.81" xlink:href="#Nepojmenovaný_přechod_64"/><linearGradient id="Nepojmenovaný_přechod_64-31" x1="1625.04" y1="1509.96" x2="1632.7" y2="1509.96" xlink:href="#Nepojmenovaný_přechod_64"/><linearGradient id="Nepojmenovaný_přechod_64-32" x1="1216.41" y1="1456.45" x2="1219.72" y2="1456.45" xlink:href="#Nepojmenovaný_přechod_64"/><linearGradient id="Nepojmenovaný_přechod_64-33" x1="1034.71" y1="1449.35" x2="1041.62" y2="1449.35" xlink:href="#Nepojmenovaný_přechod_64"/><linearGradient id="Nepojmenovaný_přechod_64-34" x1="607.58" y1="1563.15" x2="614.15" y2="1563.15" xlink:href="#Nepojmenovaný_přechod_64"/><linearGradient id="Nepojmenovaný_přechod_72" x1="-78.99" y1="1858.47" x2="2163" y2="1858.47" gradientUnits="userSpaceOnUse"><stop offset="0" stop-color="#0e0e0e" stop-opacity="0.3"/><stop offset="0.47" stop-color="#1b1b1c" stop-opacity="0.52"/><stop offset="1" stop-color="#262628" stop-opacity="0.7"/></linearGradient></defs><title>bagr grafika</title><rect class="cls-1" x="-41" y="-36" width="2071" height="2269"/><path class="cls-2" d="M1776.2,1466.38a10.38,10.38,0,0,0-2.22.4Z"/><path class="cls-3" d="M1571.78,1515c1.62,0,2.3-.31,2.38-.55C1572.65,1514.62,1571.42,1514.78,1571.78,1515Z"/><path class="cls-4" d="M1535.53,1511.34c.78.11,1.43.17,2.13.25A3.73,3.73,0,0,0,1535.53,1511.34Z"/><path class="cls-5" d="M1774,1466.79l-5.69,1.06C1768.19,1468.79,1771.28,1467.5,1774,1466.79Z"/><path class="cls-6" d="M1863.82,1437.67l1.68-.46a8.91,8.91,0,0,0,1.11-1.42Z"/><path class="cls-7" d="M1813.81,1451.45a1.67,1.67,0,0,0-.86-.58C1813,1451.13,1813.36,1451.32,1813.81,1451.45Z"/><path class="cls-8" d="M1469.28,1505.29l.29.06C1471.33,1505.2,1470.34,1505.19,1469.28,1505.29Z"/><path class="cls-9" d="M904.47,1417.88c-.1-1.75-.79-2.68-3.47,1.14,2.57-2.84,1.76.15,1.27,2.68s-.7,4.62,2.64.27C904.29,1422.22,904.59,1419.63,904.47,1417.88Z"/><path class="cls-10" d="M1316.41,1493.69a4.29,4.29,0,0,0,1.45,1.14C1317.83,1494.6,1317.51,1494.29,1316.41,1493.69Z"/><path class="cls-11" d="M1430,1507.17l-2.8-.51A18.21,18.21,0,0,0,1430,1507.17Z"/><path class="cls-12" d="M1261.56,1476c.32.2.65.42,1.09.67A10.59,10.59,0,0,0,1261.56,1476Z"/><path class="cls-13" d="M1258.88,1474.82a3,3,0,0,0,.48.51,4.82,4.82,0,0,1,2.2.65A8.43,8.43,0,0,0,1258.88,1474.82Z"/><path class="cls-14" d="M1205.42,1452.59c.24.28.6.57.89.85l1.87.63Z"/><path class="cls-15" d="M1426.46,1507.86a9.73,9.73,0,0,1-1.87.35C1426,1508.11,1427.71,1508.26,1426.46,1507.86Z"/><path class="cls-16" d="M190.19,1363.85c-.49.14-1.1.34-1.85.58Z"/><path class="cls-17" d="M364.32,1445.66l0,0C364.36,1445.73,364.35,1445.71,364.32,1445.66Z"/><path class="cls-18" d="M434.5,1418.35l.46.56C434.8,1418.7,434.65,1418.52,434.5,1418.35Z"/><path class="cls-19" d="M1252.36,1473.88a1,1,0,0,0-.22.11C1252.26,1474,1252.34,1473.94,1252.36,1473.88Z"/><path class="cls-20" d="M1424.17,1508.26l.42,0Z"/><path class="cls-21" d="M1475.72,1506.39c-1,0-1.84,0-2.47,0A22.77,22.77,0,0,0,1475.72,1506.39Z"/><path class="cls-22" d="M512.8,1527.41v0c0-.06,0-.12,0-.17s0,0,0,0S512.8,1527.38,512.8,1527.41Z"/><path class="cls-23" d="M512.47,1520.38h0v.21h0Z"/><path class="cls-24" d="M322.71,1412a10.83,10.83,0,0,1-1.1-.57c.38.51.76,1,1.16,1.44.43,0,.87,0,1.26,0C323.58,1412.6,323.13,1412.27,322.71,1412Z"/><path class="cls-25" d="M1776.2,1466.38a3.53,3.53,0,0,1,.7,0c-.13,0-.18-.07-.32-.1Z"/><path class="cls-26" d="M1777.07,1466.43l-.17,0Z"/><path class="cls-27" d="M1875.94,1445a2.7,2.7,0,0,0,1.43.21A3.45,3.45,0,0,0,1875.94,1445Z"/><path class="cls-28" d="M1918.33,1434.31l6.19-.76C1921.82,1433.78,1919.88,1434.05,1918.33,1434.31Z"/><path class="cls-29" d="M1590.88,1523.56c-1.69.42-3.36.83-5.13,1.09C1588.6,1524.81,1590.81,1524.84,1590.88,1523.56Z"/><path class="cls-30" d="M1578.32,1524.62a23.91,23.91,0,0,0,7.43,0A38.43,38.43,0,0,0,1578.32,1524.62Z"/><path class="cls-31" d="M1700.15,1497.56c.38.13,1.69-.44,1.84.26q-.42-1-.82-2l-.68.66-.27.27-.17.19a1.2,1.2,0,0,0-.25.38C1699.76,1497.5,1699.91,1497.55,1700.15,1497.56Z"/><path class="cls-32" d="M1632.7,1509.37c-2.54.43-5.1.79-7.66,1.18l5.67-.76Z"/><path class="cls-33" d="M1216.41,1454.93l.36,2.87C1219.88,1458.6,1221.59,1456.24,1216.41,1454.93Z"/><path class="cls-34" d="M1040.15,1450.78a5.93,5.93,0,0,0,1.46.18,5.59,5.59,0,0,0-1.37-1,10.41,10.41,0,0,0-1.73-1,9.15,9.15,0,0,0-1.87-.78,6.16,6.16,0,0,0-1.94-.41,31.78,31.78,0,0,0,3.7,2.32A12.69,12.69,0,0,0,1040.15,1450.78Z"/><polygon class="cls-35" points="614.15 1564.21 607.58 1562.1 610.47 1563.53 614.15 1564.21"/><path class="cls-36" d="M2136,1360l-2.85.61,4-1.41c1.1-.94.07-2.32-3.3-1.28l-1.77,2.92c-4.42,1-12.39,2.69-23.16,5.07,2.88-2.55,4.17-2.14,7.54-5.74,3.38-1.06,6.2-.49,5.82.59,1.07-.93,5.47-.6,7-2.63-4.92-1-10.62.13-16.19,3.1-1.4-.29-.31-1.24-.13-1.78-3.5,2-7.33,4.91-5.37,6.76-6.13,1.36-13.11,2.92-20.82,4.65,6.43-2,14.07-4.47,15.45-6.59l-3.41.18c.89.3.11,1.75-1.27,2.37-5.55,3-8.7,1.19-9.21.5l4.27-1.47c-5.5-3.46-17.42,4.68-26.27,6.43l2.93-4.08-8.42,4.76c-2.11-.4-3.84-1.91.39-3.4-6.68-.15-5.32,2.43-11.16,1.9-.66-.14-.43-.36.1-.61l-5.94,2.39c1.05-1-1.56-2.05,2.34-2.46-11.51.7-17.28,6.59-22,5.11l.88-.42c-15.08,4.71-.92,2.73-11.77,8.24l-9.13-4-.94,2.73c-1.6.29-4.77.87-4.42-.22-5.49,3,1.25.79-1.8,3.15-8.13-.34-20.72,6.09-23.36,2.73-2.29,2.47,7.61-.39-.2,2.85-3.31-3.5-9.21,3-16.61,2.85,1.61-2.62,8.47-3.14,1.05-3.29-3.31,4.58-13.71,2.59-19.4,4.75.44,2.88-12.42,4.39-22,7.86.37-1.11-18.84,3.23-28.22,4.66l.14-.54c-1,3.31-10.54,5.29-17.2,7.74-.2-1.77.85-2.77,4.35-4.54l-6.42,1.76c-1.27,1.32-3.14,2.35-7.21,3.82l1-2.56c-8.52,2.48-16.5,7.26-27.86,9,0,2.15,10.28,3-.9,7.62-.74-.94-1.69-2.63,1.21-4-1,.43-3.28,1.91-5.4,2l4.1-3.14c-5.21.67-2.17,2.26-6.2,3.25-.37-1.54-3.27-.22-3-1.59,1-.45,3.66-.39,5-1.43-4.58,1-10.26,1.76-12.41,1.15.65.75.61,2-2.62,3.22-8.45,2.69-3.46-.95-8.65-.2-1.73,1.69-7.49,2.27-6.92,4.58-2.48.77-3.27-.13-4.42-.44-2,1.18-7.12,2.91-11,4.43s-6.49,2.89-3.64,3.27l1.17-.21c-.19.12-.44.2-.68.33-6.77,3.48-14.25,5.7-21.76,7.93s-15.06,4.41-21.79,7.82l-.29-.74c-4,2.2-8.49,4.33-12.61,6.67s-7.85,4.76-10.12,7.28a12.25,12.25,0,0,1-1.91,1,11.45,11.45,0,0,1-1.95.68c-1.21.29-2.12.23-1.92-.51-.69.65-1.29,1.29-1.82,1.85l-1.25,1.35-1,1.06a11.91,11.91,0,0,1-1.13.92c-.4.3-.83.61-1.31.91s-1.1.55-1.75.84l-1,.45c-.38.14-.8.26-1.23.4-.89.25-1.83.58-3,.81,2.7-1.82,2-1.92,1.76-1.91s-.18,0,.29-.16l1.17-.44c.55-.22,1.22-.58,2.15-1-3.54,1.53-6.15,1.85-8.58,2.6a30.62,30.62,0,0,0-4,1.36c-1.46.6-3.14,1.35-5.22,2.42,1.28-1.33-.43-1.59-2.91-1.37-.62.06-1.29.15-2,.26s-1.41.21-2.1.34a33.42,33.42,0,0,0-3.68.91c2,.14,4.09.23,6.16.34a77,77,0,0,1-12.54,2c.61-1,1.22-1.94,1.81-2.94-8.86-.31-16.59,1.8-24,3.48s-14.36,2.9-21.27.45c-4.65,2.07,9.76.89,5.64,3.25-8.28,0-17-3.55-19.53-3.52-11.28-1.26-10.47,4.09-22.33,3.13,1.51.95,3,3.49-5.93,4.37-8.31-.42-10.15-4.06-4.92-4.78,2-.06,2.94.24,2.85.57,2.68-.31,6.18-.74,2.91-1.76l-1.08.95c-4.1-1-15.47-1-12.78-2.56-5.34.69-3.53,1.31,0,1.82-9.41-1.13-15.32-.15-25.54-1.32,1.72.58,3.29,1.74,1.56,1.68-16-1.69-7.12,1.58-18,1.59-6.12-1.7,2.35-3.35-8.64-2.6-6.64-1.28-1.3-2.58,1.38-3.23-10,1.41-18.54-2.08-24.2-2.71l5.28-.49a52.15,52.15,0,0,1-8.33,0l2.89,2.06c-3.06-.5-5.67-.65-5.56-1.44-3.24,1.07,2.25,3.29-4.14,4.64-4.05-1.2-12.58.29-13.84-2.32,11.65,1.49,1.16-1.85,7.2-2.31a37.26,37.26,0,0,1-5.29-.56c-.45-.31.47-.49,1.32-.59-12.2-3-5.85,2.49-18.65,1.59,1.72-1.31-2.78-2.89-4.89-2.73,5.15.38,2.31,2.54-2.51,3.29-8.13-1.68-9,.18-13.27-.27l4.87.88c-1.77,1.29-5.86.81-11.62.82-.13-.35.33-.52,1-.61-6,.39-12.9-4-20.86-3.13-4-1.3-.18-2.69-3.73-3.64-10.08,1-10.57-2.84-21.13-2.25,2.83,2.17,3.4,1.75-4.11,2.95l17.26.16-11.24,1.81c5.17.49,11-.24,14.1.34-5.38,1.1-4.8.68-2.45,2.47-6.84-3.46-14.2.45-22.22-2.23l.68-4.68c-12.1-3.22-22.07.39-37.92-2.41l5,1.34c-2.33,1.66-9.88-.73-15.12-.52.64-1.52-2.52-2.43-4.62-3.64.07.58-2.7.28-5.76.15a29.23,29.23,0,0,0-4.47.08l-.49.07a1.45,1.45,0,0,0-.29.11,4,4,0,0,0-.51.27,3.27,3.27,0,0,0-.77.82.43.43,0,0,0-.16.17l-.73-.9c-.41-.38-.93-.8-1.4-1.2l-2.85-2.42c-11.53-6.1-15.38-1.94-26.59-7.46,4.14-.06-.61-3.37,7.54-1.12-3.81-1.7-7.13-3.47-7.63-2.49-1.84-1.89-11.45-2.68-14.38-5.57-1.89-.06-3.07,1.23-7.32-.74a.38.38,0,0,1,.11-.6c-1.2.19-6.67-1.75-3.87,1.19-9.87-9.62-33.18-13.65-42-21.74-8.65-2.94-19-6.52-26.82-9.37.67-.25.31-.73,1.71,0-10.17-5.44-8.15,1.7-19.77-4.31-5.38-4.66,7,1.06,3.4-1.26,0-2.75-3.72-3.94-8.42-5.12s-10.32-2.31-14.1-5.1l2.14.36c-3-1.88-7.09-2.66-11.85-3.29l-7.57-.92c-2.66-.34-5.44-.72-8.5-1.18,0,0,.65-.38.16-.77l-3.8.66c-.67.11-1.53.31-2.34.49s-1.42.47-2.15.7a58.05,58.05,0,0,0-8.38,3.74c-5.44,2.89-10.63,6.31-15,9.23,1.85-3.39,3.66-3.31.89-4.11-4,2.61,2.8,2.19-5,7.39-3.2.58-9.51,3-11.32,1.49,2.49-1.39,5-2.88,7.5-4.38-5.31-.21-9.7,5.65-13.92,7.12l0-1.37c-1.4.77-2.6,1.38-3.67,2s-2,1.13-2.83,1.66-1.59,1-2.32,1.44l-2.11,1.27a20.23,20.23,0,0,1-4.79,2.07,8.77,8.77,0,0,1-1.52.33c-.53.08-1.11.19-1.71.22h-1.9a20.66,20.66,0,0,1-2.09-.28q.53.55,1.11,1.12a8.7,8.7,0,0,1-2.37.44,7.69,7.69,0,0,1-1.73-.2,5.27,5.27,0,0,1-2.12-1.35,8.92,8.92,0,0,1-.83-.85,6,6,0,0,0-1-.85c-.19-.14-.42-.25-.65-.4a7.59,7.59,0,0,0-.77-.47c-.29-.15-.6-.3-1-.45a11.78,11.78,0,0,1-1.18-.5,34.9,34.9,0,0,1,.66-3.7c-.46-.28-.94-.74-1.54-1.2a16.1,16.1,0,0,1-1.92-1.67l-1.05-1c-.37-.36-.73-.7-1.17-1.21l-2.67-2.91a159.22,159.22,0,0,0-11.8-11,36.5,36.5,0,0,1,9.8,6.61c.88.75,1.68,1.58,2.52,2.37s1.64,1.63,2.4,2.45l1.14,1.22.56.59c.18.19.32.3.48.46l1.75,1.57-2.67-3.72c-.62-.85-1.24-1.77-1.95-2.63s-1.43-1.74-2.15-2.59c-3-3.32-6.06-6-7.64-6.49.91.67,1.93,1.44,2.91,2.26a9,9,0,0,1,2.37,2.75c-3.11-1.85-6.43-4.06-10-6.6l-11.76-8.49c1.27-1,.54-2.54-1.43-4.48a47.63,47.63,0,0,0-8.84-6.12c-3.64-2.06-7.66-4-11.18-5.8s-6.5-3.5-8-5.26L958,1366c-2.41-.51-4.86-1-7.37-1.41a75.11,75.11,0,0,0-8-1c-.69-.06-1.61,0-2.45,0a18.81,18.81,0,0,0-2.57.19l-1.29.16c-.43.07-.85.17-1.28.26a20.73,20.73,0,0,0-2.53.66,32.12,32.12,0,0,0-9.07,4.56,43.34,43.34,0,0,0-7,6.41,53.43,53.43,0,0,0-5.43,7.3c2.14-1.13,3-1.27,3.15-.9s-.48,1.26-1.15,2.35c-1.37,2.17-3,5.11-.48,5.71-2.26,4.64-3.11,6.37-3.63,6.65l.67-.87-.71.89h0c-3.16,4.21-6.11,8.56-9,12.94-2.72,2.86.85-4.9-.31-4.9-2.37,5.13-3.24,6-4.1,6.44s-1.64.35-3.59,3.57c2.18-.78.93,4.52-1.87,10.17l5.23-7.5c-1.54,7.68-3.6,10.42-5.72,13.18s-4.21,5.54-5.64,13.11l.22-5c-.93,3.83-3.41,10.57-5.68,17.24s-4.38,13.26-4.22,17.44c-1.1,1-3.06,1.91-1.94-1.18-2.06,3.95-4,8.11-6.17,12.15a74.77,74.77,0,0,1-7,11.24,35.14,35.14,0,0,1-4.07,4.37,21.06,21.06,0,0,1-4.4,3,13.12,13.12,0,0,1-8.68,1.28q.5-.63.95-1.24l-4.65,1.28a12.44,12.44,0,0,1-6,.17c.21-.5,1.44-1.25-.31-1.25-1,.23-3.43,1.08-6.23,1.77-1.4.35-2.89.67-4.34.91a23.07,23.07,0,0,1-4.08.61l4-2.08c-2.45.24-4.75.56-6.93.95-1.09.2-2.15.39-3.17.63s-2,.57-2.94.88c-1.91.6-3.72,1.25-5.46,1.92s-3.34,1.52-4.94,2.3-3.15,1.59-4.7,2.41l-4.57,2.62c-1.53.89-3.14,1.67-4.73,2.6s-3.28,1.79-5.05,2.66c-1.42-3.41-15.46,1.93-22.25,4.87v-.56c-19.59,9.76-30.56,20.28-47.4,30.1a36.08,36.08,0,0,0-5.23,1.19l-1.46.45-.75.25a5.42,5.42,0,0,1-.69.21c-.79.19-1.58.43-2.48.59a42.19,42.19,0,0,1-5.85.86,55.06,55.06,0,0,1-6.92.16,83.5,83.5,0,0,1-15.39-2,87.14,87.14,0,0,1-14.53-4.57c2.58,1.4-1.21,2.54-4.57,1.85-2-1-5.17-1.4-7.6-1.93s-4.14-1.17-3.25-2.57l1.49.6c-1.07-2.05-3.82-3.68-7.15-5.16s-7.23-2.85-10.57-4.3l-2.74,3.43c-7.65-6.52-19.26-11.19-30-15.61s-3.06-10.63-6.6-15.45c-4.68-1.13-5.3-13-10-14.12l1.22-1.93c-5.79-3.12-10.2-5.44-15.2-7.73-2.51-1.14-5.15-2.27-8.38-3.43-1.66-.57-3.36-1.17-5.52-1.72-.5-.14-1.13-.27-1.71-.41s-1.26-.26-2-.37-1.55-.21-2.39-.28c-.25,0-.61,0-1,0l.06-.17.12-.3h0l.38-.07.78-.13,1.54-.22,1.34-.17q-.66-.13-1.29-.23c-.74-.09-1.48-.14-2.17-.17h0l-.9,0-.88,0-.43,0h-.18c0-.43,0-.07,0,.71,0-.49-.18-3.4,0,.56h0v.21h0v0l-.07,0-.49.07-1,.14a12.3,12.3,0,0,1-9.16-2.16c0-1.39.09-2.76.15-4.15-6-4.65-17.43-22.87-23-28.32s-11.43-10.75-18.18-14.91c.52-.19,1.53-.59,3.49,1-5.21-4.88-18.47-20.11-20.48-16.48.19-2.6-13.95,12.39-20.88,7.66a1.22,1.22,0,0,1,.35-2.17h0c-7.22-2.86-11.91,13.55-19.83,7.25-1.42-1.69-.5-2.57,1.16-.71-4.64-5.51-5.71,12.64-11.8,5.45L417,1431c-5.91-5.69-.64,2.51-5.09.68-4.4-2.83-22.35,7.62-21.91,5.32-1.65.17-2.77,5.65-6,2,0-1-7.81-.42-7,0-9.3-10.27-16.7-21-22.52-28.81a2,2,0,0,0-.38-2c7.72,6.5,13.85,27,14.22,27.52,1.26-1.59-5.1-7.58,2.06-5.12-6.41-3.52-17.84-23.81-24-30a4,4,0,0,1-.45-1.27l.85.38a17.14,17.14,0,0,0-4.51-3.16,51.59,51.59,0,0,0-5.33-4.92c.23-2-7.7-7-11.42-9.58-1,2-5.65-1.57-2.14,3.08-.49-.54.85.27,3.34,1.91a14.28,14.28,0,0,0,1.68.93l-.36,0c2.42,1.67,5.53,3.89,9,6.51-3.48-1.25-7-2.65-10.24-6.56-2.72-.15-5.6-.38-7.17-.58-1.6-3-4.7-6.47-7.58-9.44l-3.93-4a9.29,9.29,0,0,1-2-2.7,91,91,0,0,0-11.51-4.05c-1.08-.29-2.25-.51-3.38-.76-.6-.1-1.22-.18-1.83-.26a16.31,16.31,0,0,0-1.77-.18l-3.23-.09-2.77.05-.35,0a45.75,45.75,0,0,0-5.85.66,39.07,39.07,0,0,0-5.19,1.19,37.81,37.81,0,0,0-4.39,1.62,22.44,22.44,0,0,0-3.42,2,6.49,6.49,0,0,1-3.92.3c-.9-.26-1.53-.74-2.32-.9,1.06-.46,2.27-.82,3.34-1.17a10.38,10.38,0,0,0,2.6-1.06c-3.85,1.22-9.5,2.72-14.29,4.38a52.07,52.07,0,0,0-6.17,2.64c-1.61.92-2.68,1.81-2.88,2.65-4.83.89-3.76-.16-3-.89s-7.94-7.13-14.17-4.63l1.4-1.46c-13.31,2.25-11.55-2.71-20.79,3.43-8.86,5.92-10.8-12.05-23.92-7.84a2.68,2.68,0,0,1,1.65-.13c-15.16,6.62-29.58,11.72-43.56,21.36-3.49,2.44-7,4.89-10.4,7.44-1.72,1.29-3.43,2.58-5.15,4l-.32.25-.24.18-.46.33c-.3.23-.69.43-1,.65a23.3,23.3,0,0,1-2.39,1.16,51.17,51.17,0,0,1-11.16,3,86.09,86.09,0,0,1-11.83,1.11c-9,.51-9.71,2.42-15.07,4.49l-2.21-2.2q-4.55,1.88-9.19,3.66c-6.65,1.59-12.62.49-19-.4s-13.11-1.62-21.6.6l2.26,1.55c-6.16-.07-19.48,1.5-18.49-.41-.62.31-2,1.73-4.41.92l-.21-1.26q-7.54,1.21-15.11,2.33c-11.73-.88,1.8-5-15.27-5.25-6.34.48-18.1,3.48-15.74,4.36,2.55.11,6.54.89,6.72,2.15l-5.84.58c-.56,1.85-2,3.71-1.49,5.46a3.06,3.06,0,0,0,.73,1.22H-41l12,455s-104,476-12,480,1628-24,1646-20,470-44,470-44,88-650,88-667S2136,1360,2136,1360ZM331.61,1388c-.12,0-.32,0-.45,0a3.06,3.06,0,0,1,1.62-.21c2.58,1.53,3.12,2.49,3.17,3.1C334.8,1390.06,333.44,1389.13,331.61,1388Zm1689.73-2.78c12.8-4.56,14.64-7.69,26.56-11.8,4.41.26-2.73,3.55-2.73,3.55a56.11,56.11,0,0,0,17.94-4.09c-1.12,1,.32,1.22,2.43,1.63,5-1.35,2.73-3.54,9.63-3.93a19.15,19.15,0,0,1-3.74,3.8l-3.39.77a.52.52,0,0,0-.37-.23,2,2,0,0,1-.18.35c-15.07,3.44-32,7.36-50,11.63C2018.74,1386.37,2020,1385.83,2021.33,1385.19Zm-40,10c5.37-2.79,12.4-3.41,20-4.51q-9.75,2.34-19.82,4.78C1981.35,1395.43,1981.28,1395.34,1981.32,1395.22Zm-3.33,1.13h0l0,0Zm-20.84-.24c-10,6.06-1.31,2.39-1.56,4.95,1.14,0,2.5-.09,3.69-.1l-4,1a2.37,2.37,0,0,0,.29-.89h-.07l-.28.9q-11.23,2.79-22.59,5.68l-2.37.05C1937.19,1400.18,1946.88,1402.42,1957.15,1396.11Zm-91.66,25.68c1.77-1.62,6.13-3.71,10.17-4.8-7,3.17.85,2.85,4.27,3-.68-.4.24-1.3-.18-1.78,9.36.88.46-4,12.66-5l-.37,1.1c4.23-1.63,7.91-3.94,12.68-4.9,2.49,1.56-4.39,2.18-4.24,4,6.56-1.85,12-7.33,18.51-6.81-2.66,1.3-6.69,2.36-9.34,3.66,7.14.74,7.73-.07,12.66-.93l-.49.07,10-1.53c-25.05,6.38-50.31,13-74.41,19.77l14.3-4.89C1869.94,1421.3,1869.29,1422.23,1865.49,1421.79Zm-91.67,29-1.65,1.72c6.61-1.28,16.82-5.1,23.84-6.82,1.71-1.68,5.7-2.76,2.83-3.51,11.55-.4,21.44-4.25,31.07-8.09s19-7.62,29.19-7.79c-1.82.52-4,1.76-3.92,2-40.25,11.27-77.13,22.69-104.26,33.18C1757.46,1458.33,1764.73,1454.71,1773.83,1450.75Zm-201,49.4-4.81,1q-6.38-.09-12.86-.24C1561.5,1500.55,1567.27,1499.26,1572.87,1500.14Zm-33.33-1.36c-1.21.79-1.5,1.28-1.25,1.6-9.36-.3-18.81-.68-28.25-1.12C1519.35,1498.57,1528.07,1497.38,1539.54,1498.78Zm-40.3-.15-.09.09-8.8-.47A48.47,48.47,0,0,1,1499.24,1498.64Zm-46.52-6.78c-3.78,3.12,7.38,2.75,9.13,4.69-7.56-.49-15-1-22.35-1.54C1442.65,1493.61,1451.29,1492.7,1452.71,1491.85Zm-607,26.63c1-.21,2.13-.32,3.19-.5l.86-.09a27.93,27.93,0,0,1-4.38.88A1,1,0,0,1,845.75,1518.49Zm-307-28.27,0,.92h0l0-.18v-.09s0,0,0-.05,0-.3,0-.44c0,.14,0,.27,0,.41C538.78,1490.6,538.79,1490.41,538.78,1490.22Zm0,.94h0Zm0,0Zm0,0v0Zm1.52-7.77s0,0,0,0l0,0S540.34,1483.37,540.35,1483.36Zm-1.62.64h-.23v-.12h.08l.23-.05.92-.2.4-.07a2.41,2.41,0,0,1-.43.26l-.83.2h-.12Zm-189-64.57-1.17-1a3.44,3.44,0,0,1,1.39.82C349.76,1419.24,349.7,1419.3,349.73,1419.44Zm-117.94-45.3q-6.39,2.38-12.89,5.11c4.68-2.86,9.3-5.45,13.21-6.38C232.52,1373.24,232.32,1373.67,231.79,1374.14Zm-18,5c-2.36,1,9.77-5.21,8.92-4.17l-8.36,4.46c1.61.33,1.52.82.75,1.4-3,1.27,6.08-4.42,3.13-3.07a3.67,3.67,0,0,1-1-1.83C221,1374.14,211.58,1378.07,213.79,1379.18Zm1358.85,122,9.09-.28-8.3-1.19c7.93-1.48-.82-3.77,9.58-2.89-2.11.3,7.81.05,11.9,1.77h0c3.87-1,7.82-2,13.62-1.42,1.45.88-.89,3.1-.25,3.84C1596.85,1501.24,1584.91,1501.28,1572.64,1501.15Zm35.91-.17c4-2.37,18.27-1.18,22.91-4.1-1.58.71-1.59,2.28-1,2.57l3.1-2.2c3.67.46,4.22.7,3.71,2,11-.39-3.73-3.49,9.35-2.84-1,.25-.49.51-2.59,1a119.11,119.11,0,0,0,18.95-2.07c6.12-1.09,12.07-2.31,18.13-3,2.08,1.08-.51,1.87-3.05,2.44a20.89,20.89,0,0,0-3.24.92q-2.26.4-4.64.76l1.13-1.3c-2.24.58-4.48,1.06-6.72,1.57l2,.26C1650.13,1499.23,1630.33,1500.49,1608.54,1501Zm86.6-10.39c2.1-.89,4.19-1.87,6.26-3l1.6-.84,1.58-1,1.57-1c.52-.31,1-.74,1.54-1.1l1.52-1.12c.5-.39,1-.87,1.46-1.3l1.4-1.3,1-1a43.13,43.13,0,0,1,9.87-6.6l-2.74,1.2a3.06,3.06,0,0,1,1.81-2.77,22.06,22.06,0,0,1,4.73-1.69c3.76-1,8.28-1.91,11.69-4.45a2.91,2.91,0,0,0-1.4,2.31c-13.25,5.74-23,11.11-28,15.92C1705.92,1485.94,1701.21,1488.45,1695.14,1490.59Zm377.53-116.54c5.11-2,10.09-4.33,15.43-6.18,1.68.84-2.06,2.38-4.34,3.67Z"/><polygon class="cls-37" points="1480.78 1269 1485.18 1409 1586.12 1409 1571.59 1316 1558.05 1269 1480.78 1269"/><path class="cls-38" d="M1498,1433l4-53v-25s0-6-6-4-21,25-24,36-5.67,37-5.67,37Z"/><path class="cls-37" d="M1332.59,1426.91V1498h45s43.15-53.3,80.92-74Z"/><path class="cls-37" d="M1587,1421.08l-74.7,1.71c30.33,13.06,56.28,40.21,56.28,40.21l19.79,18,1.21-4Z"/><polygon class="cls-37" points="1341.59 1359 1332.52 1408 1462.05 1408 1466.32 1268 1371.83 1268 1356.59 1308 1341.59 1359"/><path class="cls-38" d="M1331,1366l23-2s4-2,3,3,4,26,6,26,24-26,24-26-18.5-14.34-16-16c3-2,16,6,25,11s25,16,25,16,1,3-6,2-21-8-21-8-22,26-23,27,3,17,3,18-15,26-18,27-39,39-39,39h-38l21-75,23-16Z"/><path class="cls-39" d="M1336,1459c4-2,9,5,12,6s8,2,9,1,24-37,24-37,22-21,24-22,16,0,16,0-9-8-9-10-5-14-3-14,8,1,12,0,14-15,14-15,8.84-24,9-28c.15-3.63-9.29-2.26-11-4-.7-.71-1-13-1-14s-12,0-12,0-2-2,0-3a105.4,105.4,0,0,0,11-7c1-1,7-9,15-8s14,6,12,13c-1.4,4.9-1,15,1,17s18,17,18,17,6,27,2,35-9,34-9,34l-72,78-30-11s-5-5-8-6-20-5-20-8S1336,1459,1336,1459Z"/><path class="cls-40" d="M392,1511.46c-1.76.61-3.68,2.38-4.87,2.63-1.73.36-4.57.58-5,0S371.19,1492,371.19,1492l-1.69-2,8.59,1.22c2.08,4.52,5,10.31,5.95,10.78C384.72,1502.26,388.18,1506.57,392,1511.46Z"/><path class="cls-40" d="M358.71,1464.68a42.69,42.69,0,0,1-5.45-.45l.33-1.75a8.16,8.16,0,0,0,2,.15c3.94-.09,12.15-3,12.15-3s10.47,15.84,11,16.46c.26.33-.57,3-1.4,5.45l-16.71-2a12.19,12.19,0,0,0-1.25-1.27c-1-.69-8.85-1.05-8.85-1.05s5.51-3.84,5.64-4.94S359.82,1464.81,358.71,1464.68Z"/><path class="cls-40" d="M352.4,1461.12s-.45,1,1.2,1.36l-.33,1.75a7.5,7.5,0,0,1-1.19-.34c-2.15-.82-6.77-9.23-6.77-9.23s-3.31-13.87-3.14-16.09c.15-2,5.29-.65,6.35-1.49.43-.35,1.41-7.13,1.48-7.69s6.64.79,6.64.79,1.24-1,.2-1.66a57.1,57.1,0,0,1-5.62-4.6c-.49-.62-3.29-5.44-7.78-5.41s-8.15,2.4-7.5,6.41c.45,2.8-.43,8.37-1.67,9.34-.39.31-1.66,1.26-3.19,2.4l3.42-38.87L386.8,1404l5.8,23.15,5,29.23.19,2.91-7.33-1.52s-2.08-1.37-1.85,1.47-3.93,14.14-5,14-11.58-16-11.58-16,11.19-6.72,9.92-7.8c-1.53-1.31-9.26,2.27-14.57,4.44S352.4,1461.12,352.4,1461.12Z"/><path class="cls-40" d="M257.64,1474.05l41.26,5.87c-17.65,5.23-33.81,18.56-33.81,18.56l-12.15,8.7-.4-2.32Z"/><path class="cls-40" d="M326.47,1396.83l-7.92,52.56c-2.11-4.05-4.4-7.45-5.9-8.15a2.29,2.29,0,0,0-3.59,1.81l-1.65,13.85-.69,16.2-47.8-5.68,14.16-50.54,10.59-25.14Z"/><path class="cls-41" d="M355.27,1583.44h.29l-.29,0Zm1.09,1.12c0,2.27.34.69.07,3v.12l-2.08-.25a54,54,0,0,1-1.22,6.6l2,.51a54.79,54.79,0,0,1-2.12,6.66l-1.95-.76a55.34,55.34,0,0,1-2.82,6.09l1.84,1a54.15,54.15,0,0,1-3.72,5.92l-1.69-1.23a53.79,53.79,0,0,1-4.26,5.2l1.53,1.42a54.89,54.89,0,0,1-5.06,4.81l-1.34-1.61a53.43,53.43,0,0,1-5.41,4l1.13,1.76a54.26,54.26,0,0,1-6.1,3.4l-.9-1.88a55,55,0,0,1-6.24,2.52l.66,2a56.82,56.82,0,0,1-6.75,1.78l-.41-2.06a54.76,54.76,0,0,1-6.67.88l.14,2.09a56.73,56.73,0,0,1-7,0l.12-2.09c-1.08-.07-2.17-.16-3.26-.29s-2.29-.31-3.41-.52l-.38,2.06a56.4,56.4,0,0,1-6.77-1.69l.63-2a52.64,52.64,0,0,1-6.26-2.44l-.89,1.91a56.85,56.85,0,0,1-6.14-3.34l1.11-1.77a52.52,52.52,0,0,1-5.45-3.92L266,1624a55.9,55.9,0,0,1-5.11-4.75l1.51-1.45a55.71,55.71,0,0,1-4.31-5.14l-1.69,1.24a54.82,54.82,0,0,1-3.78-5.87l1.83-1a52,52,0,0,1-2.9-6.06l-1.94.79a56.23,56.23,0,0,1-2.21-6.63l2-.54a53.88,53.88,0,0,1-1.3-6.6l-2.08.27a54.41,54.41,0,0,1-.48-7h2.09a54.86,54.86,0,0,1,.38-6.65v-.06l-2.08-.25c.28-2.31,0-2.26.54-4.51l2.76.33a14.48,14.48,0,0,1,.57-1.91l-14.36-2.54-.53,4.44-11.2-.21,2.71-23.17a3.4,3.4,0,0,1-3-1.16c-2.31-3-27.18-88.52-27.18-88.52a22.46,22.46,0,0,0-5.46-8.5c-3.75-3.37-36.75-28-38.92-28.61s3.92,19.79,3.92,19.79l7,71.28-3.7,2.1-1.06,6.72-.92.42c1.16.83,2,1.43,2,1.43s-5.89,18.65-1.75,29.14c2.34,5.94,9.47,16.62,11.44,17.95a67.51,67.51,0,0,0,11,5.36l5.07,1.39-.4,1.45s-9.3-.21-12.59.44-16-1.27-30.52-5.25-17.93-5.69-19.64-10.84a29.12,29.12,0,0,1,3.14-25.64,44.18,44.18,0,0,1,5.19-6.48,104.2,104.2,0,0,0-8.26-10.74c-4.82-5.21-3.81-17.4-3.81-17.4s-2.13-23.4-2.19-40.36c0-8.15,1.82-25.45,3.37-38.51,1.12-9.43,2.09-16.65,2.09-16.65a11.93,11.93,0,0,1,1.94-5.95c6.61-9.88,7.41-21.35,23.49-14.61,12.41,5.21,15.16,5,15.78,4.61l.17-.24,73.6,35.77c.45,1.37-.73,3.85-1.93,5.87a1.19,1.19,0,0,1,.14.65c-.35,3.4,4,56.27,5.61,85l5-3.58,5.08-42.79,21.23-69.74-8.45-.07-6-1.27,1.05-8.86,1.66.2s3.06,2.61,3.39-.16l.33-2.76-2.09-1.37.33-2.77,17.16,2,1.38.16,2.77.33,2.49.3,107.42,12.76.61,2c1.61-.39,5-1,7,0,2.49,1.35,5.5,6,6.15,7.94,4.41-.57,8.24-1.06,9.35,3.45s1.18,23.16.16,27c-.88,3.3-10.63,6.41-14.36,7.76l4.38,24.18v0c2.77.46,15.31,2.6,25.84,4.57l7.42-62.42s1.77-5.4,4.53-5.08,3.22,6,3.22,6l-6.46,63.18c2.46.52,4.41,1,5.54,1.28l.91.26,2.2-2.92,79.37-18.8,5.57-4.19,6.13.34,69.51,5.94,8.82-13.73s-3.93-24.42-3.81-26.46,11.6-9.17,14.43-8.6,15.39,24.65,15.39,24.65l13.15,6.5a107,107,0,0,0,30.63,9.14c2,.12,9.87-.67,9.87-.67s-41.49,37.37-48.77,42.69-40.86,5-43.59,2.42-85.25,7-90.24,8.34c-.68.19-2.19.78-4.29,1.67,10.21,7.36,12.77,12.12,12.79,15.82,0,1.3-.64,8.55-1.56,18.18l-5,46.73-.3,6.14c-.1.93-.19,1.79-.27,2.59a41.91,41.91,0,0,1,2.17,5.36l.88-.35a42.43,42.43,0,0,1,2,6.72l-1.34.28a43.45,43.45,0,0,1,.52,6.76l1.71-.07a42.87,42.87,0,0,1-.25,7v.09l-2-.23a44,44,0,0,1-1.53,6.5l2.1.62a42.48,42.48,0,0,1-2.53,6.55l-2.06-1a42.76,42.76,0,0,1-3.42,5.69l1.9,1.35a42.11,42.11,0,0,1-4.52,5.37l-1.64-1.63a43.63,43.63,0,0,1-5,4.38l1.3,1.81a43.43,43.43,0,0,1-6,3.62l-.95-1.92a39.91,39.91,0,0,1-6.18,2.55l.6,2a42.09,42.09,0,0,1-6.88,1.47l-.24-1.93a38.66,38.66,0,0,1-6.69.36l-.07,1.88c-1.14,0-2.29-.14-3.42-.27s-2.38-.33-3.55-.57l.38-1.83a38.73,38.73,0,0,1-6.43-1.89l-.68,1.76a42,42,0,0,1-6.32-3.06l1-1.65a39.28,39.28,0,0,1-5.42-3.93l-1.29,1.53a43.94,43.94,0,0,1-5-4.95l1.55-1.32a42.38,42.38,0,0,1-3.87-5.44l-1.79,1.07a44,44,0,0,1-3.12-6.29l1.95-.77a42.49,42.49,0,0,1-2-6.39l-2,.43a41.69,41.69,0,0,1-.89-7l1.9-.09a43.56,43.56,0,0,1,0-6.72l-1.69-.2a42.87,42.87,0,0,1,1.4-6.88l1.39.41a43.63,43.63,0,0,1,2.12-6.49l-1-.47c.18-.35.36-.71.55-1.06ZM605,1479.71l1.58-6.41-13.46-2.57,8,9.48C603.42,1480,605,1479.71,605,1479.71Zm-18.45-.57L578,1468.61l-39.78-3-6.47-1.6-63.63,20.17c3.57,1.14,7.34,2.41,11.13,3.76,19.63-5.38,40.94-10.81,45.21-11.24C531.38,1476,572.88,1477.64,586.55,1479.14Zm-184.38-36,10.49-5.19-1-1.24a2,2,0,0,1-2.71-.88c-.9-1.79-.24-16.87.45-17.92s-3.39.16-6.42,2a37.16,37.16,0,0,1-4.65,2.34l1,5.09Zm-8.71,90.24,2.06-17.31-2.19-2.85a31.21,31.21,0,0,0-2.33,5.83c-.2,1.66-9.87,2.75-11.6,3.11s-4.82,2.8-4.82,2.8l-8.32,2c1.46,2.17,2.28,3.48,2.28,3.48Zm4.29-74.09-.19-2.91-5-29.23L386.8,1404l-52.32-6.22-3.42,38.87c1.54-1.14,2.8-2.09,3.19-2.4,1.24-1,2.13-6.54,1.67-9.34-.65-4,3-6.38,7.5-6.41s7.29,4.79,7.78,5.41a57.1,57.1,0,0,0,5.62,4.6c1,.69-.2,1.66-.2,1.66s-6.57-1.34-6.64-.79-1,7.34-1.48,7.69c-1.06.85-6.2-.53-6.35,1.49-.17,2.22,3.14,16.09,3.14,16.09s4.62,8.41,6.77,9.23a7.5,7.5,0,0,0,1.19.34,42.69,42.69,0,0,0,5.45.45c1.11.13-2.44,6.44-2.58,7.55s-5.64,4.94-5.64,4.94,7.81.37,8.85,1.05a12.19,12.19,0,0,1,1.25,1.27l16.71,2c.83-2.46,1.66-5.11,1.4-5.45-.49-.62-11-16.46-11-16.46s-8.21,3-12.15,3a8.16,8.16,0,0,1-2-.15c-1.65-.39-1.2-1.36-1.2-1.36s9.58-5,14.89-7.22,13-5.74,14.57-4.44c1.27,1.08-9.92,7.8-9.92,7.8s10.47,15.85,11.58,16,5.25-11.17,5-14,1.85-1.47,1.85-1.47Zm-10.64,54.8c1.2-.25,3.11-2,4.87-2.63-3.79-4.9-7.25-9.21-7.93-9.52-1-.46-3.87-6.25-5.95-10.78l-8.59-1.22,1.69,2s10.37,21.45,10.86,22.07S385.37,1514.45,387.1,1514.1Zm13.66-102.93c-.62,0-1.06-.21-1.13-.59-.36-1.72-.29-2.28-3.06-2.6a3.06,3.06,0,0,1-1-.28l1.21,6.46C397.85,1413.3,399.25,1412.2,400.75,1411.17Zm-82.21,38.23,7.92-52.56-42.79-5.08-10.59,25.14-14.16,50.54,47.8,5.68.69-16.2,1.65-13.85a2.29,2.29,0,0,1,3.59-1.81C314.14,1441.95,316.44,1445.34,318.54,1449.39Zm-19.65,30.52-41.26-5.87-5.11,30.8.4,2.32,12.15-8.7S281.24,1485.15,298.89,1479.92ZM175,1411l32.68,11.84L180,1405.36Zm-28.35,105.26,1.83-4.21s-4.75.26-4.28-4.29a11.29,11.29,0,0,0,0-1.56l-8.29-2.27c-4.35-1.2-8.91,6.91-8.91,6.91l9.38,12.46A57.49,57.49,0,0,1,146.61,1516.27Zm-18.92-22.37,15.64,3.67c-2.09-18.89-7.32-56.74-7.32-56.74l-7.66-.53.09-1c-1.79,8.67,0,20.47-.71,28.85S127.69,1493.91,127.69,1493.91Z"/><path class="cls-39" d="M1662.58,1681.43a7.58,7.58,0,0,0-2.12-.3Z"/><path class="cls-39" d="M1458.23,1685.15c1.54-.11,2.18-.45,2.25-.75C1459.06,1684.65,1457.89,1684.87,1458.23,1685.15Z"/><path class="cls-39" d="M1423.64,1682.11c.74.09,1.37.13,2,.19A2.76,2.76,0,0,0,1423.64,1682.11Z"/><path class="cls-39" d="M1660.46,1681.14l-5.44-.8C1654.69,1681.43,1657.82,1681,1660.46,1681.14Z"/><path class="cls-39" d="M1749,1672.72l1.62-.17a8.8,8.8,0,0,0,1.2-1.48Z"/><path class="cls-39" d="M1813.49,1657.44c-1.45.42-1,3.24-1.1,4.61a5,5,0,0,1,2.44-3A3.59,3.59,0,0,0,1813.49,1657.44Z"/><path class="cls-39" d="M1908.41,1608.82l.88-1C1909,1608.13,1908.65,1608.5,1908.41,1608.82Z"/><path class="cls-39" d="M1909.29,1607.8c.15-.17.29-.33.4-.46Z"/><path class="cls-39" d="M1700.36,1675.78a2.06,2.06,0,0,0-.68-1A1.42,1.42,0,0,0,1700.36,1675.78Z"/><path class="cls-39" d="M1360.38,1679.45l.28.05C1362.32,1679.16,1361.38,1679.23,1360.38,1679.45Z"/><path class="cls-39" d="M793.6,1666.28c1.73-.12,2.77-.81.36-3.87,1.55,2.94-.87,2-3.06,1.21s-4.14-1.26-1.4,2.9C789.52,1665.8,791.86,1666.41,793.6,1666.28Z"/><path class="cls-39" d="M1214.75,1682.7a4.16,4.16,0,0,0,1.5,1.22C1216.19,1683.63,1215.85,1683.28,1214.75,1682.7Z"/><path class="cls-39" d="M1323.31,1685.61l-2.69-.34A13.59,13.59,0,0,0,1323.31,1685.61Z"/><path class="cls-39" d="M1157.23,1686.89c.35.07.72.15,1.2.22A7.74,7.74,0,0,0,1157.23,1686.89Z"/><path class="cls-39" d="M1157.23,1686.89a6.1,6.1,0,0,0-2.76,0,2.53,2.53,0,0,0,.61.34A3.56,3.56,0,0,1,1157.23,1686.89Z"/><path class="cls-39" d="M1099.77,1687.54a11,11,0,0,0,1.09.56l1.86-.16Z"/><path class="cls-39" d="M240.84,1594.06l.68-.07A6.21,6.21,0,0,0,240.84,1594.06Z"/><path class="cls-39" d="M1148.48,1689.1a1.21,1.21,0,0,0-.15.24A.34.34,0,0,0,1148.48,1689.1Z"/><path class="cls-39" d="M184.84,1609.88l0,0C184.91,1609.89,184.89,1609.88,184.84,1609.88Z"/><path class="cls-39" d="M1320.06,1686.84a7.61,7.61,0,0,1-2,.69C1319.42,1687.2,1321.35,1687.23,1320.06,1686.84Z"/><path class="cls-39" d="M1364.24,1680.53a16.58,16.58,0,0,0,2.33-.27A18.82,18.82,0,0,0,1364.24,1680.53Z"/><path class="cls-39" d="M69.22,1502.87c-.09-.47-.24-1-.41-1.71C68.94,1501.74,69.08,1502.3,69.22,1502.87Z"/><path class="cls-39" d="M1317.94,1687.58l.16,0Z"/><path class="cls-39" d="M137.43,1621.9a6.54,6.54,0,0,1-1,.36,13.74,13.74,0,0,0,1.6.4c.26-.34.53-.68.76-1Z"/><path class="cls-39" d="M1663.37,1681.8a1.13,1.13,0,0,0-.15-.09Z"/><path class="cls-39" d="M1662.58,1681.43a2.87,2.87,0,0,1,.64.27c-.11-.08-.15-.15-.27-.23Z"/><path class="cls-39" d="M1853.69,1642.29l4.86-2.18,4.8-2.31c-2.16,0-5-.06-1-2.69-6.56,1.92-5.65,2.1-4.65,2.63S1859.91,1639.19,1853.69,1642.29Z"/><path class="cls-39" d="M1823.48,1655c5-2.66-.67-1.43-.63-2.11C1820,1655.2,1819.23,1655.78,1823.48,1655Z"/><path class="cls-39" d="M1587.79,1682.06l.5-2.57C1583.86,1680,1588.28,1680.48,1587.79,1682.06Z"/><polygon class="cls-39" points="1516.44 1678.61 1509.04 1679.7 1514.51 1679.02 1516.44 1678.61"/><path class="cls-39" d="M1110.18,1685l1.37,3.14C1114.56,1687.54,1115.16,1684,1110.18,1685Z"/><path class="cls-39" d="M935.6,1691c-1.92-1.54-6.81-2.5-9.81-.94C929.7,1690.29,933.61,1691.47,935.6,1691Z"/><polygon class="cls-39" points="463.39 1601.59 457.04 1599.36 459.76 1600.93 463.39 1601.59"/><path class="cls-39" d="M1941.87,1594.12c4.16-4.63,8.56-10,8.26-12.63l-2.84,1.69c1-.11,1.33,1.75.54,3-2.83,5.52-6.83,5-7.71,4.45l2.76-3.33c-3.57-.65-6.53,2.4-9.58,6.22a110.06,110.06,0,0,1-7.36,9.14l-2.17,1.16c0-1.56.08-3.12.09-4.68-1.2,2.23-2.45,4.42-3.71,6.62l-2.83,1.52c-1.23-.4-1.76-1.56.23-3.72-6,2.23-3.34,4.52-8.88,6-.67.07-.59-.25-.27-.71-1,1.25-2.13,2.46-3.21,3.68l-.82.34c-.33-1-2-1.45.75-2.9a25.91,25.91,0,0,0-6.14,3.88,42.68,42.68,0,0,0-4.26,4.09c-2.4,2.6-4.28,4.56-6.82,4.4l.59-.71c-5.69,4.77-5.63,5.54-5,6.36s1.87,1.58-1.87,6.15c-3.46-.71-6.94-1.54-10.37-2.38l.36,3.36c-1.36.71-4.06,2.1-4.21.76-3.86,4.65,1.52.65-.34,4a20.53,20.53,0,0,0-6,2.27c-2,1.09-4.07,2.24-6,3.33a24.67,24.67,0,0,1-5.24,2.42c-1.56.4-2.86.32-3.78-.58-1.32,3.26,7.12-1.58.81,3.4-2.19-1.83-4.09-.61-6.38,1.17s-5,4-8.57,4.31c.78-3.34,7.09-4.68,0-4.07-.87,3-4,4-7.46,4.66-1.73.33-3.52.63-5.23.91a14.06,14.06,0,0,0-4.49,1.39c1,3.52-10.91,5.78-19.68,9.4.11-.7-4.27.19-9.84.93a147.83,147.83,0,0,1-16.63,1.75l.15-.64c-.52,1.93-3.05,3-6.26,3.88-1.61.41-3.36.81-5.16,1.1s-3.59.6-5.23,1c0-2.22,1.14-3.19,4.58-4.57l-6.18.68c-1.34,1.32-3.22,2.14-7.22,2.93l1.31-2.88c-8.23.92-16.43,4.67-27.28,3.58-.44,2.6,9.05,6.52-2.22,9-.52-1.35-1.09-3.69,1.84-4.45-1,.25-3.4,1.38-5.4.92L1716,1679c-5-.69-2.43,2.11-6.36,2.15,0-2-3-1.22-2.52-2.82,1-.25,3.46.6,4.91-.27-4.43-.06-9.83-.91-11.68-2.3.45,1.1.16,2.66-3.06,3.1-8.34.62-3-2.21-7.91-2.95-1.95,1.48-7.35.34-7.33,3.29-2.45.11-3-1.24-4-2-4.25,1.53-20.18,1.33-15.16,4.24l1.12.16c-.2.07-.45.08-.7.16-14.06,3.58-29.55-.41-43.58,1.36v-1c-8.37,1.43-18.69,1.32-24.63,3.63-2.49.08-5.93-1.62-4.9-2.82-6.41.94-7.09,2.07-16.43.72,6.41-1.91-2.27-1.46,6.59-1.46-8.38-.6-10.31-2.13-19.21.82,3-2.61-6.38-3-10.33-2.15l5.9,1.65a85.74,85.74,0,0,1-12.34.26l2.06-3.38c-17.19-3.6-30.67,7.65-43.84,1.16-4.47,2.43,9.32,1.43,5.34,4.24-7.88-.27-16.18-4.87-18.64-4.83-10.81-1.62-10,5.07-21.26,4,1.46,1.16,2.89,4.3-5.52,5.58-7.89-.29-9.77-4.8-4.82-5.84,1.89-.14,2.8.22,2.73.63,2.54-.48,5.86-1.05,2.72-2.28l-1,1.21c-3.93-1.14-14.76-.81-12.25-2.8-5.07,1.06-3.3,1.76.09,2.28-9-1.08-14.6.42-24.37-.5,1.66.63,3.21,2,1.56,2-15.27-1.22-6.68,2.36-17,3-5.9-1.72,2-4.35-8.34-2.67-6.37-1.13-1.39-3.13,1.12-4.13-9.44,2.43-17.72-1.24-23.14-1.58l5-1a38.92,38.92,0,0,1-7.91.66l2.88,2.33c-2.94-.37-5.42-.35-5.38-1.34-3,1.6,2.37,3.92-3.6,6.12-3.92-1.15-11.88,1.46-13.27-1.68,11.15.82.95-2.43,6.66-3.53a27.77,27.77,0,0,1-5.06-.22c-.45-.35.41-.66,1.21-.85-11.79-2.66-5.36,3.63-17.54,3.72,1.53-1.79-2.87-3.33-4.85-2.93,4.91,0,2.39,2.93-2.1,4.35-7.83-1.29-8.48,1.13-12.57,1l4.68.6c-1.56,1.79-5.47,1.61-10.91,2.23-.15-.43.27-.69.87-.86-5.66,1.13-12.54-3.56-20-1.61-3.92-1.16-.41-3.33-3.85-4.11-9.43,2.4-10.26-2.32-20.18-.32,2.89,2.36,3.38,1.77-3.59,4.16l16.32-1.85-10.45,3.58c4.93,0,10.39-1.61,13.34-1.23-5,2-4.47,1.4-2.09,3.36-6.78-3.51-13.35,2.22-21.18-.12l.18-5.91c-11.75-2.52-20.8,3.23-36,1.88l4.9,1c-2,2.37-9.4.41-14.32,1.41.44-2-2.65-2.67-4.76-3.88.27,1.46-11.14,0-12.49,3.91l-6.82-2.54c-12.3-1-14,5.74-25.81,5.15,3.54-2.17-1.84-3.53,6.07-5.13-3.95,0-7.5-.32-7.55,1-2.31-1.22-10.92,2.74-14.56.89-1.66.88-2.19,3-6.62,2.82a.57.57,0,0,1-.14-.74c-1,.82-6.45,1.32-2.89,3.29-12.2-6.07-34,.69-44.59-4.53-8.61.72-19,1.43-26.8,1.62.5-.59,0-1,1.5-.79-10.8-1.76-6.59,5.71-18.88,3.75-6.29-3.15,6.51-1.77,2.59-3-1.75-6.48-14.81,1-23.1-2.73l2-.4c-6.34-2.15-15.39,2.59-25.73,2.25,0,0,.5-.58,0-1a43.87,43.87,0,0,1-9.88,3c-1.92.39-3.93.74-6,1.07l-3.11.48-1.6.24-.86.14-.52.09-.41.08c-.13,0-.2,0-.5.13l-.09,0-.1,0c-2.5.36-5,.68-7.23,1,3-2.66,4.44-1.52,2.46-4-4.41.53,1.46,4.1-7.37,5.14-2.93-1.3-9.35-2.31-10.28-5l8.33-.4c-4.38-3.42-10.78.45-15.2-.06l.52-1.57a45.19,45.19,0,0,0-12.93,2.66,38.12,38.12,0,0,1-13.69,2l1.44,1.16c-7.48,4-6.32-2.12-13.8.84l-2.29-3.93c-2.47.48-6.81,1.44-11.64,2.37a137.76,137.76,0,0,1-14.62,2.08c5.08-2.86,15.47-4.29,21.89-6.05-4.91,0-16.65.24-19.23,2.17,2-.37,4.48-1.32,6.43-.7-6,3.07-14,4.52-23.8,4.21,1-3.83-5.4-4.39-12.83-5a111.36,111.36,0,0,1-11.18-1.12,28.33,28.33,0,0,1-4.73-1.18,12.79,12.79,0,0,1-1.89-.85,5.62,5.62,0,0,1-1.36-1.1c-7.87.82-15.61-1-22.86-4.26a99.15,99.15,0,0,1-10.75-5.84c-3.55-2.25-7.14-4.67-11-7.24,1,4.28-.13,3.58-1.88,2.45s-4-2.78-5.38,0a44.39,44.39,0,0,1-4-2.87c-.78-.69-1.11-1.13-1.14-1.42l.57.81-.57-.86h0c-2.74-3.88-5.29-7.9-7.77-12-1.13-3.55,4.06,2,4.7.71-6.83-7.16-1.21-4.71-4.75-10.47-.59,2.5-4.67-.23-8.17-5l3.73,7.8c-6.14-3.88-7.42-7.06-8.69-10.2s-2.57-6.35-9.1-10.49l4.74,2c-3.13-2.31-8.23-7.37-14.12-11.89a60.39,60.39,0,0,0-9-5.9,27.53,27.53,0,0,0-4.34-1.85,13.4,13.4,0,0,0-3.85-.76c-.79-1.37-1.51-3.86,1.78-2.2q-1.51-1.09-3.12-2.14c-1.1-.67-2.23-1.32-3.38-2s-2.32-1.22-3.51-1.78-2.38-1.12-3.66-1.62a69.34,69.34,0,0,0-16.48-4.63,46.08,46.08,0,0,0-9.32-.45,37.19,37.19,0,0,0-9.39,1.78,44.12,44.12,0,0,0-7.88,3.51c-1.18.62-2.17,1.24-3.22,1.82s-2,1.12-2.81,1.59c.08-.71.18-1.43.33-2.17a12.55,12.55,0,0,0-1.81,2.22c-.48.74-.91,1.49-1.38,2.19a7,7,0,0,1-3.89,3.22c-.24-.6,0-1.9-1.14-1.11-.22.36-.55.89-1,1.6a20.22,20.22,0,0,1-1.66,2.14,7.12,7.12,0,0,1-4.38,2.64,21.21,21.21,0,0,0,1.49-2.49c-2.58.77-4.52,1.21-6.77,1.75-.82.25-3,.58-4.59.95s-3.36.78-4.92,1.25c-6.34,1.84-12.18,4.09-19.42,5.23-.34-4.4-14.17-4.61-21-4.69l.18-.64c-20.23,1.28-33.89,6.78-52.35,9.92-5.94-2-15.74-1.72-26.18-1.52-2.56,0-5.24.07-7.81,0l-3.78-.1-.94,0-.47,0-.41,0-1.61-.17-1.6-.17a3.58,3.58,0,0,1-.37,0l-.17-.07-.35-.12-.17,0-.09,0-.15-.06-.6-.23-.59-.23a6.45,6.45,0,0,1-.63-.26,44.56,44.56,0,0,1-5.53-2.95c2.08,1.76-1.69,3-4.77,2.14-3.4-2.47-12-2.33-9.59-5.65l1.34.75c-1.14-4.94-9.54-8-15.78-11.33l-3.44,4.18c-6.47-7.6-17.66-12.53-28.14-16.61s-20.17-7.3-23.7-12.44a63,63,0,0,1-7.43-1.52c-1.27-.31-2.53-.61-3.77-.86a31.23,31.23,0,0,0-3.68-.47l1.17-2.59a142.58,142.58,0,0,0-15.82-5.7c-2.63-.69-5.31-1.44-8.5-2-1.58-.3-3.24-.63-5.1-.84s-3.77-.54-6-.64l1.9-.82,1.88-.73a15.7,15.7,0,0,0-1.74-.21,14.57,14.57,0,0,0-1.66.06,14.38,14.38,0,0,0-3,.6,20.65,20.65,0,0,0-5,2.54l-2.29,1.46c-.76.47-1.56,1-2.37,1.41a17.65,17.65,0,0,1-5.62,1.78q-1.58-1.94-3.35-3.84l-2.89.46-2.83.39c-1.89.25-3.79.44-5.69.65-3.8.44-7.62.78-11.4,1.31-7.56,1-15,2.61-21.93,6.13.11-.66.28-1.95,2.64-2.65-3.51.71-10.42,1.52-16,2.86-5.15,1.24-9.1,2.9-8.07,5.14-2.38-2.33-15.38,4.16-22.38,7.69l.51-3c-5.74,5.23-5.69,6.21-14.66,9.73-2.1.25-2.46-1.31-.1-1.67-6.85.8-4.56,4.1-13.5,5.17l2.79-2.66c-7.55,1.95-6.68,2.72-10.21,5.9-4.37,2.45-14.33,3.53-16.15,1.45-.56,1.77-4,5-8.62,5.59-.86-.73.56-1.78,1.28-2.3-12.95,1.91-17.52,8.65-26.8,8.46a2.14,2.14,0,0,0-1.89-1.19c9-2.51,16.47-4.62,17.09-4.61-.83-2.39-8.74-.53-3.48-5.77-5.8,3.76-15.5,11-23.49,11.84a3.61,3.61,0,0,1-1.24-.59l.72-.49a12.25,12.25,0,0,0-4.71,1.63,44.82,44.82,0,0,0-6.43.72,2.45,2.45,0,0,0-2-.67,22.87,22.87,0,0,0-3.4.36l-3.78.72-1.75.32c-.53.07-1,.13-1.46.16.3,1.38-.72,2.09-1.27,2.68s-.62,1.08,1.78,2c-.31-.07-.14-.17.41-.31.27-.07.64-.14,1.1-.22l1.64-.34a7.82,7.82,0,0,0,1.57-.53,3,3,0,0,1-.22.28c1.24-.23,2.69-.57,4.29-.88s3.37-.75,5.27-1.21c-2.74,2.08-5.82,4-10.31,3.1a41.38,41.38,0,0,1-4.87,5.19,26.21,26.21,0,0,0-2.68-1.44,17.35,17.35,0,0,1-2.55-1.38,10.32,10.32,0,0,1-1.11-.88,8.41,8.41,0,0,1-.89-1,6.44,6.44,0,0,1-1.07-2,5.72,5.72,0,0,1-.23-1.79,3.2,3.2,0,0,1,.19-1.57,22.33,22.33,0,0,1-5.24-5.44c-1.79-2.4-3.52-5.18-5.23-7.91-3.42-5.49-6.79-10.76-10.69-13.45-1.93-3.08-.06-4.37.24-5.9,1.22,1.73,2,4,3.13,4.78-3.86-6-7.88-19.6-11.93-20-1.53-9.1,4.94,3.64.11-7.89l1.64,1.2c-1.42-12.56-7.18-21.27-13.09-30.14a138.94,138.94,0,0,1-8.56-14,73.11,73.11,0,0,1-6-16.15,2.6,2.6,0,0,1,0,1.81c-5.74-14.82-15.25-28.77-27-40.58a112.47,112.47,0,0,0-9.29-8.4l-2.43-2c-.81-.65-1.6-1.34-2.45-1.92q-2.52-1.83-5-3.69c-6.77-4.74-13.71-9-20.64-13.37-4-2.31-6.57-2.78-8.75-2.86s-4.06.44-6.93.5l-1-3.47c-1.67.09-3.36.3-5,.45s-3.3.31-4.94.56a23.5,23.5,0,0,1-4.76-.62,35.06,35.06,0,0,1-4.41-1.27c-2.86-1.08-5.66-2.3-8.61-3.55-5.88-2.34-12.51-4.34-21-2.33.69.7,1.37,1.43,2,2.15a108.56,108.56,0,0,0-11.53-.21c-3.84,0-6.81-.11-6.33-1.31-.61.38-1.92,2.12-4.26,1.13l-.22-1.57c-4.87,1-9.68,2.2-14.45,3.44-5.66-.12-5.38-1.68-5.72-3.13s-1.33-2.79-9.71-1.93a43.35,43.35,0,0,0-10.46,4.21,20.91,20.91,0,0,0-3.61,2.43c-.76.69-1,1.2-.31,1.33,2.51-.43,6.34-.15,6.87,1.32l-.23,0v.17c-1.71.54-3.4,1.09-5.09,1.68-.07,2.38-.81,4.94.12,7,.63,1.52,2.15,2.72,5.55,3.51L-87,2157H1972l-28.67-563.67ZM140.81,1618.68c-.05.12-.18.26-.23.39a3.52,3.52,0,0,1,.73-1.57c2.41-.85,3.39-.54,3.85,0C144,1617.77,142.59,1618.17,140.81,1618.68Zm1799.5-27.39c1.54.12.61,2-.46,3.92l-4.29,2.3C1937.1,1595.41,1938.64,1593.3,1940.32,1591.28Zm-9.73,8.08c0,.26,0,.55-.07.85l-3.3,1.77A8.45,8.45,0,0,1,1930.59,1599.36Zm-98,59.58c-.58.58-1.07,1.08-1.49,1.53l-.13,0C1831.53,1660,1832.07,1659.49,1832.6,1658.95Zm-841.74,38.41.15.64.06.32h-.31l-.06-1.43,0,0A2.32,2.32,0,0,1,990.87,1697.36Z"/><path class="cls-39" d="M871.59,1544h36s18.71,20.32,39.62,43h22.38l84-94h15l31-13.27c.39-17.36.76-30.41,1-32.73,1-8,9-18,41-33s95-24,107-26c2.08-.35,5.65-.72,10.15-1.11l1.85-113.89s2-10,7-10,7,10,7,10v112.72c19.16-1.28,42-2.42,47-2.67v0l12.92-42.13c-6.34-3.2-23-10.79-23.92-16.87-1-7,3-40,6-48,2.92-7.79,9.64-6.1,17.37-4.16,1.58-3.29,7.92-11,12.63-12.84,3.74-1.5,9.71.36,12.49,1.4l1.51-3.4h237v5l-4,2v5c0,5,6,1,6,1h3v16l-11,1-15-1.67,23,128.67v77.28l8.14,7.43c9-50.79,27.88-144,28-150.16a2.13,2.13,0,0,1,.38-1.14c-1.71-3.84-3.29-8.51-2.19-10.86l138.64-48.12.26.46c1,.79,5.89,1.77,29.07-4.87,30.06-8.62,29.07,12,38.74,31a21.38,21.38,0,0,1,2.2,11s.19,13.06.19,30.08c0,23.59-.37,54.78-2.14,69.3-3.69,30.19-12.43,71.4-12.43,71.4s-.79,21.93-10.46,30.2a186.15,186.15,0,0,0-17,17.37,79.68,79.68,0,0,1,7.87,12.63c9.88,20.33,4.29,37.53.16,46.33s-10.6,11.14-37.26,15.15-49.73,4.76-55.46,2.89-22.33-3.45-22.33-3.45l-.41-2.67,9.34-1.4c4-.6,16.93-5.28,20.73-7.21s18.75-19.47,24.18-29.54c9.59-17.81,3-52.27,3-52.27s1.56-.91,3.81-2.13l-1.54-.93-.47-12.2-6.14-4.53L1774,1379.56s15.18-35,11.18-34.41-68,37.5-75.37,42.7-11.53,14-11.53,14-62.4,147.09-67.13,151.89c-1.44,1.47-3.45,1.74-5.54,1.42l-.09,41.84-20-2v-8l-26.09,1.47a27.36,27.36,0,0,1,.59,3.53h5c.52,4.12,0,4,0,8.14h-3.75v.11a95.73,95.73,0,0,1-.74,11.92l3.73.46a98.53,98.53,0,0,1-2.32,12.31l-3.64-.93a94.89,94.89,0,0,1-3.71,11.48l3.49,1.38a99.22,99.22,0,0,1-5.33,11.34l-3.29-1.81a94.12,94.12,0,0,1-6.46,10.18l3,2.21a98.13,98.13,0,0,1-8,9.65l-2.74-2.56a97.8,97.8,0,0,1-8.77,8.26l2.39,2.89a100.15,100.15,0,0,1-10.11,7.38l-2-3.17a94.59,94.59,0,0,1-10.54,5.83l1.61,3.39a100.4,100.4,0,0,1-11.64,4.64l-1.17-3.58a94.61,94.61,0,0,1-11.67,3l.7,3.69a101.11,101.11,0,0,1-12.42,1.58l-.24-3.75q-3.06.2-6.18.2c-2,0-3.93-.07-5.87-.18l-.22,3.75a99.3,99.3,0,0,1-12.43-1.54l.69-3.69a95.11,95.11,0,0,1-11.68-3l-1.15,3.58a99.06,99.06,0,0,1-11.66-4.6l1.59-3.4a96.61,96.61,0,0,1-10.57-5.8l-2,3.17a99.83,99.83,0,0,1-10.14-7.35l2.39-2.89a96.6,96.6,0,0,1-8.8-8.24l-2.73,2.58a99.38,99.38,0,0,1-8-9.63l3-2.22a97.58,97.58,0,0,1-6.49-10.15l-3.28,1.82a99.14,99.14,0,0,1-5.36-11.32l3.48-1.39a96.34,96.34,0,0,1-3.74-11.45l-3.63.94a98.87,98.87,0,0,1-2.37-12.3l3.72-.48a97.33,97.33,0,0,1-.77-12h-3.75v-.22c0-4.09.25-1.21.75-5.25l-156.54,2.41c.26.66.51,1.33.74,2l-1.85.64a77.6,77.6,0,0,1,2.4,12l2.55-.42a76.15,76.15,0,0,1,1,12.54h-3.06a78.69,78.69,0,0,1-1.32,12l3.37.55a76.15,76.15,0,0,1-3.07,12.22l-3.44-1.18a76.35,76.35,0,0,1-4.91,10.94l3.3,1.78a77.61,77.61,0,0,1-6.88,10.55l-3-2.3a75.29,75.29,0,0,1-8,8.88l2.48,2.69a78,78,0,0,1-9.91,7.75l-2-3a71.61,71.61,0,0,1-10.49,5.84l1.39,3.15a74.83,74.83,0,0,1-11.91,4.11l-.83-3.26a69.45,69.45,0,0,1-11.86,2l.28,3.34c-2.13.18-4.29.27-6.43.27s-4.12-.08-6.16-.25l.27-3.37a70.08,70.08,0,0,1-11.84-2l-.85,3.38a76.26,76.26,0,0,1-11.93-4.07l1.47-3.35a72.18,72.18,0,0,1-10.45-5.85l-2.1,3.22a77.41,77.41,0,0,1-10-7.72l2.7-3a75.48,75.48,0,0,1-8-8.85l-3.26,2.56a77,77,0,0,1-6.92-10.52l3.68-2a76.25,76.25,0,0,1-4.88-10.85l-3.88,1.34a75,75,0,0,1-3.11-12.2l3.85-.65a78.79,78.79,0,0,1-1.34-11.9h-3.57v-.17a77.25,77.25,0,0,1,1-12.54l3,.5a76.89,76.89,0,0,1,2.36-11.92l-2.32-.79a75,75,0,0,1,5.07-11.54l1.49.81a74.74,74.74,0,0,1,5-9.09c0-1.45,0-3,.07-4.68h-8.24l-86.39,72.59.39.41-55,43h-109l44-91Zm115.27,86,16.73-16.07V1585.7l-2,2.3-16,10,.83,31.5Zm111.84-107.41c.19-10.4.39-20.9.58-30.64L1068.59,1505v6l-50.18,57.66c-.14,8.85-.31,21.93-.25,31.26ZM1344.59,1308l2.78-8.85a65.44,65.44,0,0,1-7.78-5.15c-5-4-12-7-11-5s-1,29-3,32-5,1-5,1l-2,2,17.58,11.46Zm117.46,101,4.27-140h-94.49l-15.24,40-15,51-9.07,49Zm-84.46,89s43.15-53.3,80.92-74l-125.92,2.89V1498Zm-25.77-213,3.53-11.26a5.42,5.42,0,0,1-1.76.3c-5,0-5,1-6,4-.22.66-1,.88-2.14.81C1347.92,1281,1350.17,1283.22,1351.82,1285ZM1390,1595.18l-.53,0,.53.06ZM1586.12,1409l-14.53-93-13.54-47h-77.27l4.4,140Zm-17.53,54,19.79,18,1.21-4-2.58-55.92-74.7,1.71C1542.64,1435.85,1568.59,1463,1568.59,1463Zm171.16-147.82-52.87,25.3,60.71-14.16Zm52.88,219.29,19.34-20.21s-6.41-15.39-14.41-14.19l-15.23,2.29a19.73,19.73,0,0,0-.36,2.78c-.13,8.2-8.53,6.74-8.53,6.74l2.36,7.88A103.25,103.25,0,0,1,1792.63,1534.47Zm27-96.34c.46-15.06,6.19-35.7,4.84-51.51l-.06,1.71-13.74-.66s-17.32,66.3-25,99.49l28.62-3.23S1819.14,1453.2,1819.6,1438.13Z"/><g class="cls-42"><path class="cls-43" d="M844,1678.92v.05l0,.16a1.75,1.75,0,0,0,.05.23,1,1,0,0,0,.43.58,2,2,0,0,0,1.31.1c.26-.1.48-.21.73-.3s-.08.23-.73.3a2.51,2.51,0,0,1-.63.17,4.09,4.09,0,0,0,2.31.46,5.81,5.81,0,0,0,.44-.71,5,5,0,0,0-.1-4,3.36,3.36,0,0,0-.62-1,9.55,9.55,0,0,1-.8-1,5.2,5.2,0,0,1,2.4,6l.17-.15a5.34,5.34,0,0,0,.13-3.82,4,4,0,0,1-.28-.68,5.32,5.32,0,0,1,.28.68,8.45,8.45,0,0,1,.86,1.7,6.14,6.14,0,0,1-.26,1.31c-.07.33-.44.59-.72.81a4.72,4.72,0,0,1-.24.48.37.37,0,0,1,0,.17h0a2,2,0,0,0,1.42-.78,4.61,4.61,0,0,0,1-2.38,5.83,5.83,0,0,0-.32-2.87,3.4,3.4,0,0,0-1-1.55,2.56,2.56,0,0,0-1.57-.24,4.85,4.85,0,0,1-1.52,0c-.28-.08-.41-.47-.72-.28a1.15,1.15,0,0,1-.37.4c-.52-.05-1-.84-1.49-.27-.15.11-.41-.61-.77-1.27s-.76-1.24-.76-.95c0,2.16,0,.55-.92.59-.13,0-.2.92-.4.9-.84-.24-.77.53-1.25,1.11a1.43,1.43,0,0,1-.88.8c-.28.14-.52.4-.28,1.17,0,.09,0,.53,0,.94a5.26,5.26,0,0,0,.1.76,1.81,1.81,0,0,0-.21,1.14c0,.34-.17.58-.93.93a1.22,1.22,0,0,1,.51,1.43c-.08.52-.21,1.18.13,1.56.66.71,0,1.6.15,3,.13.32.38.39.35.73s.82-.06,1,.21l-.37.46c.07.1.21.3.3.39s0,.25-.15.41c-.23.32-.48.62-.4,1a4.64,4.64,0,0,0,1.36,1.38,6.31,6.31,0,0,0,1.93-.59,4.31,4.31,0,0,1,.23-.72c.17-.12.32-.26.48-.4.12-.57.13-1.2.2-1.59,0-.82.19-1.62.28-2.41a15.93,15.93,0,0,0,.09-2.31,4.81,4.81,0,0,1-.14-1.37l.14-1h0s0,0,0,0h0l0,0h0a.45.45,0,0,1-.15,0,.31.31,0,0,1-.15-.07c-.14-.05-.08-.08-.08-.11s0,0,0,0,.09-.11.19-.06a.44.44,0,0,1,.21.24v0s0,.12,0,0a1.08,1.08,0,0,1,.26-.6c.51-.67,1.28-.4,1.37.07a.77.77,0,0,1-.79.93,1,1,0,0,1-.67-.27c-.25-.26-.13-.15-.15-.16s0,0,0,0Z"/></g><g class="cls-42"><path class="cls-43" d="M852.15,1675.13c-.29.36-.41-.25-.67.33a1.75,1.75,0,0,1-.19-1.41l.32-.43C851.79,1674.14,852.25,1674.48,852.15,1675.13Z"/><path class="cls-43" d="M839.35,1665.64c0,.12-.23.15-.35.18a.25.25,0,0,1,.06-.31C839.21,1665.43,839.29,1665.55,839.35,1665.64Z"/><path class="cls-43" d="M842,1670.9c-.19.19-.21.46-.44.66a1.49,1.49,0,0,1-1.31-1c-.08-.15.06-.32.2-.37.5-.08,1-.26,1.39.15C842.35,1670.5,841.54,1670.91,842,1670.9Z"/><path class="cls-43" d="M835.36,1667.83h.22c0,.09-.44.12-.5.25l.42.13c-.06.13-.23.07-.35.09.21.41-.17.6-.06,1l-.44-.11c-.17.12-.08.3-.26.38-.38-.26-.63.13-1,.12a3.32,3.32,0,0,1-.81-.24,1.77,1.77,0,0,1-.64.27.74.74,0,0,0,0-.11c-.25,0-.4,0-.41.1,0-.09-.39,0-.5-.07-.13.14.23.31-.16.45a4.78,4.78,0,0,1-.94,0c0-.12-.56-.22-.56-.27.34,0,.25-.2.8-.21a1,1,0,0,0-.44-.12c-.28,0-.07.13-.35.15s-.21-.16-.33-.27l-.26,0c.39-.15-.28-.25,0-.34.48-.2,1.16-.53,1.82-.76.27.09.75-.21,1-.27.1,0-.09.18.21.09s-.23-.14.4-.36a9.11,9.11,0,0,0,1.88-.33c.6-.08.11.43.78.24-.09-.2.19-.05.33-.13S835.4,1667.69,835.36,1667.83Z"/><path class="cls-43" d="M835,1673.06c-.09.11-.31,0-.46,0-.4-.09-.3-.36-.27-.49a.89.89,0,0,1,.67.07C835.31,1672.75,835.09,1673,835,1673.06Z"/><path class="cls-43" d="M830.24,1670.4a.44.44,0,0,1-.33.09,3.8,3.8,0,0,1-.78-.2c0-.09-.23-.16.14-.17S830.33,1670.26,830.24,1670.4Z"/><path class="cls-43" d="M836.19,1680.39c-.41.43-.66-.09-1-.3.21-.69-.71-.32-.56-.94.07-.12.16-.26.39-.2.28.67,1-.2,1.27.48C836.48,1679.72,836.29,1680.09,836.19,1680.39Z"/><path class="cls-43" d="M834.55,1675.42a.63.63,0,0,1-.6-.21.26.26,0,0,1,0-.42.59.59,0,0,1,.59.22C834.72,1675.21,834.58,1675.28,834.55,1675.42Z"/><path class="cls-43" d="M832.69,1673.33c-.13,0-.2-.08-.34-.12s0-.19,0-.26l.37.09C832.83,1673.18,832.77,1673.23,832.69,1673.33Z"/><path class="cls-43" d="M833.52,1675.26a1.22,1.22,0,0,1-.53-.29c0-.17-.09-.41.24-.33s.28.15.49.27A.27.27,0,0,1,833.52,1675.26Z"/><path class="cls-43" d="M831.74,1673.17c-.18,0-.19.11-.19.21-.29-.17-.52-.1-.72-.18,0-.16-.42-.35-.65-.55s-.07-.5.53-.33c.35.23,1,.35,1,.61C831.66,1673,831.6,1673.06,831.74,1673.17Z"/><path class="cls-43" d="M827.59,1670.3l-.21,0c-.46-.16-1.09-.44-1.33-.52s.14,0-.35-.14l.17,0c.8.17,1,.33,1.69.49C827.37,1670.17,827.37,1670.19,827.59,1670.3Z"/><path class="cls-43" d="M832.76,1675.23a1.4,1.4,0,0,1-.57-.12,3.05,3.05,0,0,0-.24-.49,1,1,0,0,1,.68.12C832.85,1674.89,832.93,1675.16,832.76,1675.23Z"/><path class="cls-43" d="M831.86,1675.76c-.37-.3-.12-.41-.22-.67.06-.06.17-.06.34,0a.9.9,0,0,1,.41.47C832.35,1675.81,832,1675.63,831.86,1675.76Z"/><path class="cls-43" d="M832,1679.86c-.25,0-.27-.24-.38-.4s.12-.29.31-.25C832.27,1679.31,832.34,1679.81,832,1679.86Z"/><path class="cls-43" d="M828.87,1673.86c-.11-.05-.32-.39-.23-.4l.3.26C828.93,1673.78,829,1673.91,828.87,1673.86Z"/><path class="cls-43" d="M801.67,1687.52c-.06-.07,0-.1,0-.14l.09.22S801.72,1687.54,801.67,1687.52Z"/><path class="cls-43" d="M823.85,1681.57c-.09-.41.15-1.31-.29-1.14-.55.45-.75-.33-1.22-.3.12-.22.09-.55-.15-.59-.07,0-.19,0-.25.12a4.09,4.09,0,0,0,.31-1.31,10.47,10.47,0,0,0,.85-1.42c0-.17-.12.08-.09-.13.16.14.5-.11.74-.19v-.17c.25-.3.4,0,.53.12s.13-.28.18-.33-.07.76.15.7l.2-.37c0,.26-.23.42-.14.7.08.09.17.14.2.21-.17.47.21.92,0,1.42-.29.09-.19.56-.15.83l-.16-.29a1.67,1.67,0,0,1-.4,1l-.1-.17C823.75,1680.6,824,1681.21,823.85,1681.57Z"/><path class="cls-43" d="M824.15,1680.81l0,0,0,.34C824.13,1681.09,824.18,1680.9,824.15,1680.81Z"/><path class="cls-43" d="M825,1678.74s0-.12,0-.19S825.11,1678.68,825,1678.74Z"/><path class="cls-43" d="M825.69,1669.66h0Z"/><path class="cls-43" d="M824.91,1677.84l0,0H825S824.94,1677.84,824.91,1677.84Z"/><path class="cls-43" d="M821.94,1680.34c.06,0,.14-.19.13,0S822,1680.35,821.94,1680.34Z"/><path class="cls-43" d="M820.83,1680.22s0-.08,0-.1l.05.09S820.86,1680.22,820.83,1680.22Z"/><path class="cls-43" d="M821.88,1678.3v-.05l.11,0S821.92,1678.33,821.88,1678.3Z"/><path class="cls-43" d="M821.2,1676.78c-.32.34-.24-.27-.55-.15,0,0,.39-.31.27-.43s-.25.2-.2,0c.13.09.46-.23.54-.38l-.09-.1c.34-.05.73-.21.72.21s-.3.45-.38.83C821.51,1676.44,821.23,1676.94,821.2,1676.78Z"/><path class="cls-43" d="M824.92,1672.34a.76.76,0,0,1,.09-.35C825.08,1671.92,825,1672.25,824.92,1672.34Z"/><path class="cls-43" d="M819,1677.6c0-.07-.09-.18.08-.3s.17.11.09.26A.19.19,0,0,0,819,1677.6Z"/><path class="cls-43" d="M820.95,1672.15c-.42.19-.54-.09-1.19.15.19,0,.53-.24.53-.13-.29,0,.43-.45.18-.55.48-.18.75-.28,1.29-.52a1,1,0,0,0,.6-.07l0,0c.09.08,0,.18.5,0l.08,0a3.24,3.24,0,0,1-.42.22c.11,0-.09.13.12,0-.23.18-.59.42-.62.57C821.88,1671.65,820.9,1672.41,820.95,1672.15Z"/><path class="cls-43" d="M822.9,1671.4c.11-.06.25-.13.19-.06a1,1,0,0,1-.28.18S822.83,1671.46,822.9,1671.4Z"/><polygon class="cls-43" points="820.34 1671.6 820.32 1671.65 820.21 1671.65 820.34 1671.6"/><polygon class="cls-43" points="822.42 1670.86 822.41 1670.89 822.38 1670.88 822.42 1670.86"/><path class="cls-43" d="M821.5,1670.62c.06-.07.32,0,.41-.08C821.8,1670.57,821.64,1670.58,821.5,1670.62Z"/><path class="cls-43" d="M823,1670.38a1.5,1.5,0,0,0-.36.11c.25-.15-.39,0-.61,0,.22-.18-.14-.25-.14-.42a.2.2,0,0,0-.11,0c.5-.1.46-.22.7-.31.11.07.36,0,.47,0-.29,0-.28-.11-.27-.15l.18.08a5.17,5.17,0,0,0,.69,0c-.06,0-.07,0,0,0s.08,0,.09,0a2.13,2.13,0,0,0,.57,0,7.89,7.89,0,0,0,1.34,0h.14l-.46.13a7.55,7.55,0,0,0-.89.31c-.27,0-.72.22-1,.24l-.4.15C822.85,1670.48,823.27,1670.36,823,1670.38Z"/><path class="cls-43" d="M821.57,1670.16l-.11,0Z"/><path class="cls-43" d="M821.34,1670l-.24,0Z"/><circle class="cls-43" cx="825.71" cy="1669.69" transform="translate(-1005.47 1328.44) rotate(-53.13)"/><path class="cls-43" d="M825.69,1669.71h0Z"/><path class="cls-43" d="M821.25,1669.41l-.09-.05Z"/><path class="cls-43" d="M822.52,1669.42c.16,0-.06.08.07.12S822.35,1669.45,822.52,1669.42Z"/><polygon class="cls-43" points="823.28 1669.57 823.29 1669.59 823.21 1669.58 823.28 1669.57"/><path class="cls-43" d="M820.91,1668.75c.21,0,.24.05.2.09S820.82,1668.78,820.91,1668.75Z"/><polygon class="cls-43" points="822.32 1669.22 822.39 1669.29 822.33 1669.26 822.32 1669.22"/><path class="cls-43" d="M825.73,1669.69h0Z"/><path class="cls-43" d="M825.76,1669.7l-.35-.14a4.35,4.35,0,0,1-.46-.25c.29.14.33.15.1,0,.44.21.84.44.72.38h0Z"/><path class="cls-43" d="M825.79,1669.66h0l.07,0h0Z"/><polygon class="cls-43" points="825.05 1669.29 825.13 1669.34 825.01 1669.27 825.05 1669.29"/><path class="cls-43" d="M825.7,1669.68h0Z"/><path class="cls-43" d="M825.74,1669.69h0Z"/><path class="cls-43" d="M822.39,1664.51a.47.47,0,0,1,.06.11l-.11-.09S822.37,1664.5,822.39,1664.51Z"/><path class="cls-43" d="M825.68,1669.68h0Z"/><path class="cls-43" d="M825.25,1669.09l.13.16Z"/><polygon class="cls-43" points="825.71 1669.66 825.72 1669.66 825.72 1669.66 825.71 1669.66"/><path class="cls-43" d="M826.91,1672.56a4.9,4.9,0,0,0,.15.66c-.07-.09-.15-.35-.16-.25a1.61,1.61,0,0,0-.1.93,3.43,3.43,0,0,0-.13-.72c-.09-.1-.15-.14-.2,0,0-.14-.09-.29-.11-.38-.15-.27-.19.28-.31.13,0-.17.21-.06.15-.53a5.34,5.34,0,0,0-.23-.72s0,0,0,0c-.06-.38-.11-.91-.16-1l-.06-.54-.05-.39v-.06c0-.05,0-.1,0,0h0l0,.09.16.34c.12.27.18.37.28.55l.77,1.66C826.64,1671.69,827.08,1672.78,826.91,1672.56Z"/><path class="cls-43" d="M823.63,1664.42c0,.07,0,.06.05.08q-.06-.45-.08-.91l.07.18a2.75,2.75,0,0,1,.42-.67c.4,0,.75.92,1,1.09.12.43-.07.08-.1.33s0,.52.11.33a7.4,7.4,0,0,0,0,.76l.09.16a1.32,1.32,0,0,0,0,.68c.07.14.05-.14.13.08-.16-.21-.13.38-.28.24l.09.29c-.06,0-.22-.47-.21-.19l.05.16c-.16-.21-.38-.62-.62-.88A5.4,5.4,0,0,1,823.63,1664.42Z"/><path class="cls-43" d="M825.73,1669.68h0Z"/><polygon class="cls-43" points="825.71 1669.66 825.71 1669.66 825.71 1669.66 825.71 1669.66"/><path class="cls-44" d="M825.46,1669.15l0-.1Z"/><path class="cls-43" d="M825.31,1668.72c.09.22.08.22,0,.15S825.29,1668.68,825.31,1668.72Z"/><polygon class="cls-44" points="824.96 1664.14 824.96 1664.11 825.04 1664.25 825.04 1664.28 824.96 1664.14"/><polygon class="cls-43" points="825.14 1667.5 824.98 1667.12 825.09 1667.34 825.14 1667.5"/><path class="cls-43" d="M825.25,1663.75a.34.34,0,0,1,0,.22C825.22,1663.91,825.22,1663.76,825.25,1663.75Z"/><path class="cls-43" d="M825.33,1664.66l.1,0Z"/><path class="cls-43" d="M825.4,1665.64c0,.22,0,0,.07,0,0,.39-.11-.14-.17.13C825.31,1665.69,825.34,1665.53,825.4,1665.64Z"/><path class="cls-43" d="M832.63,1662.29c0,.46.66.41.61.81,0,0-.1-.05-.16,0,.43.22-.48.67-.07.86l-.24,0a.41.41,0,0,0-.14.4c-.05,0,0-.14-.11-.13a2.72,2.72,0,0,1-.78.53.17.17,0,0,0,.05-.08,1.18,1.18,0,0,1-.68.17c-.1.09-.1.16-.08.2.22-.49-.62-.26-.29-1-.27.06,0-.35.06-.54a1,1,0,0,1,.33-.61A2,2,0,0,1,832.63,1662.29Z"/><path class="cls-43" d="M825.69,1669.64h0Z"/><path class="cls-43" d="M826.68,1663l.11-.1Z"/><path class="cls-43" d="M825.76,1669.81h0Z"/><polygon class="cls-43" points="825.75 1669.77 825.75 1669.77 825.75 1669.78 825.75 1669.77"/><path class="cls-43" d="M825.75,1669.79v0h0Z"/><polygon class="cls-43" points="834.04 1663.04 833.95 1663.04 834.02 1663.02 834.04 1663.04"/><polygon class="cls-43" points="825.75 1669.78 825.75 1669.79 825.75 1669.78 825.75 1669.78"/><polygon class="cls-43" points="850.05 1661.14 849.84 1660.9 850.02 1661.07 850.05 1661.14"/><path class="cls-43" d="M825.77,1669.82h0Z"/><path class="cls-43" d="M833.28,1663.59l.15.14Z"/><polygon class="cls-43" points="833.95 1663.7 833.86 1663.64 833.89 1663.65 833.95 1663.7"/><path class="cls-43" d="M834.29,1663.9c0,.06-.06,0-.11.05S834.23,1663.86,834.29,1663.9Z"/><path class="cls-43" d="M832.11,1664.69c-.12.07,0-.05,0-.09S832.11,1664.65,832.11,1664.69Z"/><path class="cls-43" d="M831.38,1665.1c0-.12-.19-.06-.12-.15S831.62,1664.88,831.38,1665.1Z"/><path class="cls-43" d="M833.32,1664.43l0,.16Z"/><polygon class="cls-43" points="832.25 1664.73 832.07 1664.8 832.1 1664.72 832.27 1664.68 832.25 1664.73"/><path class="cls-43" d="M825.73,1669.68h0Z"/><path class="cls-43" d="M825.73,1669.65h0Z"/><path class="cls-43" d="M825.73,1669.67h0Z"/><path class="cls-43" d="M825.73,1669.67v0Z"/><path class="cls-43" d="M825.73,1669.68h0Z"/><polygon class="cls-43" points="825.73 1669.66 825.73 1669.67 825.73 1669.67 825.73 1669.66"/><polygon class="cls-43" points="825.73 1669.66 825.73 1669.67 825.73 1669.66 825.73 1669.66"/><path class="cls-43" d="M825.73,1669.63h0Z"/><path class="cls-43" d="M832.33,1667.51l-.24.18c-.36,0-.31-.18-.21-.28C832.19,1667.24,832.3,1667.42,832.33,1667.51Z"/><path class="cls-43" d="M825.76,1669.65h0Z"/><polygon class="cls-43" points="827.26 1669.01 827.36 1668.93 827.37 1668.96 827.26 1669.01"/></g><g class="cls-45"><path class="cls-43" d="M789.69,1662c-.13.08-.1.2-.16.34l-.49.08c0,.2.49-.45.38-.82C789.3,1661.88,789.62,1661.86,789.69,1662Z"/><path class="cls-43" d="M820.6,1626.84l0,0-.3.41C820.23,1627.3,820.45,1626.92,820.6,1626.84Z"/><path class="cls-43" d="M820.56,1627.26l-.11.1-.16.34.42-.33.1-.2-.1.2a3.65,3.65,0,0,0,.44-.58c.1-.29-.24,0-.52.25l.06-.14c.46-.39.47-.11.56.14a4.1,4.1,0,0,1-.43.78c-.61.55-.6.1-.51-.38Z"/><polygon class="cls-46" points="820.36 1627.92 820.41 1627.79 820.69 1627.53 820.36 1627.92"/><path class="cls-43" d="M799.17,1675.52c.56.59.1,1.43-.46,1.89-.47-.14-1,.25-1.48.09.07-.13.6-1.08-.12-1.05.29.57-.63.58-1,.44l.53-.13c0-.59-.54-.46-.72-1l.53-.13-.2-.7C797.21,1675.09,798.22,1674.76,799.17,1675.52Z"/><path class="cls-43" d="M815.73,1641.39c.41,0,1-.51.63.86a2.14,2.14,0,0,1-1,1.21l-.49-.23.11-.11.15-.74.11-.11,0-.41C815.38,1642,815.73,1641.62,815.73,1641.39Z"/><path class="cls-46" d="M816.05,1641.86c.07-.29-.14-.15-.16-.24a.68.68,0,0,1,.33-.25c0,.33-.41.94-.55,1.28-.31.34-.32-.23-.54,0C815.57,1642.52,815.72,1641.62,816.05,1641.86Z"/><path class="cls-47" d="M815.8,1642.39a.39.39,0,0,0-.19.24l-.1.2-.1,0,.1-.2.06,0,.13-.51Z"/><path class="cls-43" d="M802.85,1677.58c.18.23-.16.57-.21.86-.65.45-1.29,0-1.9-.23.43-.11.56.32,1.07-.1v-.79c-.3.2-.72.25-.76-.09C801.61,1677.1,802.45,1676.94,802.85,1677.58Z"/><path class="cls-43" d="M819.51,1636.9l-.14.5-.33.42a.61.61,0,0,0,.14-.26l0-.22-.38.64c.12-.35,0-.17,0-.25l.08,0,.11-.27,0,.15.33-.66-.27-.1C819.23,1636.87,819.54,1636.44,819.51,1636.9Z"/><path class="cls-43" d="M855.14,1648.76c-.92-.75-.63.21-1.1.14-.23-.34.65-.24,0-.78-.39-.06-.88.06-.72.5l0,.06c-.37-.68.74-1.11-.41-2-.09.16-.69,0-.85-.29.25-.57-.59-1.31-.48-1.92l-.44,0c0-.56.49-1,.7-1.48-1.27-.3.33-.85-.67-1.32.84.16,1.44,0,1.11-.43a5.81,5.81,0,0,1,3.86.67c.89.23.82.62,1.73,1.25l-.24,0c.3.22.48.62.91.63a1.34,1.34,0,0,0,.53,1.12c.63.38,1.09,1,.76,1.17.07.17.28.25.4.33-.09.15-.1.32.1.56.08.88-.28,1.63.49,2.92l-.12-.37-.58-.17.76,1.16c-.53-.4-.8-1.1-1.47-1.25-.51,0-.19.47-.26.72l-.19-.4c-.63-.08,0,.81-.66.82a1.86,1.86,0,0,0-2-.81l-.44.74C856.07,1649.93,855.87,1649.27,855.14,1648.76Z"/><path class="cls-43" d="M819,1642.65a2.13,2.13,0,0,0-.14.49c-.06.51,0,.39.09.55l.13-.49c0-.52-.15.26-.06-.4s.19.07.22,0c-.12,1-.23,1.1-.34,1-.19.25-.1-.48-.14-.71C818.83,1643.05,819,1642.42,819,1642.65Z"/><path class="cls-43" d="M819.68,1647.52c.08.55.16,1,.13.8v-.06s0-.18,0,0,.27.93.53,1.91c0,.32,0,.46-.08.47s-.25-.19-.35-.41a4.42,4.42,0,0,1-.28-.78c-.1-.3-.18-.59-.23-.79l.08-.51-.1-.37a9.21,9.21,0,0,0,.12-1.76l0-.14a1.65,1.65,0,0,0,0,.17l0,.46A9.37,9.37,0,0,0,819.68,1647.52Z"/><path class="cls-43" d="M821.2,1657.33l-.16,0c.21-.17.26-.67.35-1.09-.13-.19-.21-.39-.35-.31l0,.15c0-.28.47-.08.17-.92l-.1-.12c.57.05.3-1.34.69-1.26-.12-.72,0-.71.22-.56s.52.38.6.3a3.27,3.27,0,0,0,.9.9l1.78,2.42a8.58,8.58,0,0,0,.22,1.7,5.67,5.67,0,0,1,2.38.95c1.49,1,.4,2,.67,3.19a1.3,1.3,0,0,0-1,.47,5.07,5.07,0,0,0-.67.85l-.19.4c0-1.46-1.55-.22-2.25-.41l-.4.11c.15-.34.62-.39.46-.88l-.92.25c.14-.11.36-.17.44-.5l-.4-.42c.22,0,.2-.28.25-.45s-.25-.31-.39-.43l.27-.45c-.41-.34-.73-.34-.79-1.08l-1.07,0,.22-.43c-.18-.26-.36-.36-.54-.27l-.06.15.11-.53L821,1659C821,1658.38,821.78,1658.07,821.2,1657.33Z"/><path class="cls-43" d="M828.2,1685.73l-.75-.21a16.47,16.47,0,0,0,2.5-2.08,11,11,0,0,1,1.53-1.14,13.36,13.36,0,0,1,2.32-1.15,15.37,15.37,0,0,1,2.83-1,32.63,32.63,0,0,0,3.15-1.08c2.11.76,1.24,2.61-.66,5.15a20.14,20.14,0,0,0-3.44,1.83,13.81,13.81,0,0,1-3.65,1.7l-.36.34.85-.79c-1.64.25-3.28.42-4.9.52C828.22,1687.16,827.78,1686.43,828.2,1685.73Z"/><polygon class="cls-46" points="823.43 1660.8 823.38 1660.66 823.7 1660.57 823.74 1660.71 823.43 1660.8"/><path class="cls-43" d="M825.19,1654.23a1.09,1.09,0,0,1,.24.3c-.19-.25-.78-.51-.55-.15C824.79,1654.19,824.79,1653.91,825.19,1654.23Z"/><path class="cls-43" d="M827.34,1652.19l-.23,0c-.06.09-.09-.56-.63-.66-.53-1.41,2.75.1,1.44-1.71,1.15.07,1.12-.88,2.61-.23a2.49,2.49,0,0,1,1.43,2l-.09.88c-.23-.18-.46-.09-.45,0l-.19.31c-.76-.73-.58.26-1.24.09l.06-.09c-1-.48-.78.31-1.66.06l-.34.14C827.58,1652.79,827.6,1652.46,827.34,1652.19Z"/><path class="cls-43" d="M841.15,1648.83c-.32.11,0-.49-.6-.43.2-.34-.59-.73-.57-1.05h-.16c.76-.27-1.34-1.33.11-1.63-.66-.89,1.15-.21,1-.74a5.25,5.25,0,0,1,3.2,1.5c.83.91.19.41,1,1.47l.3.51c-1.1-.44.83,1-.39.66-.08.28.2.66-.09.87a.89.89,0,0,0-.39-.35c-.41,0-.35.3-.5.42l-.41-.32-.54.19c0-.13-.2-.24-.39-.35l-.28.18C841.63,1649.45,842.1,1648.8,841.15,1648.83Z"/><polygon class="cls-46" points="843.15 1647.9 842.96 1648.5 843.02 1648.12 843.15 1647.9"/></g><g class="cls-48"><g class="cls-45"><path class="cls-43" d="M702.62,1536.52c.1,0,.17.09.29.16l.21-.16c.13.14-.47-.08-.71-.38C702.65,1536.27,702.54,1536.39,702.62,1536.52Z"/><path class="cls-43" d="M676.78,1528.32h0l.3.09Z"/><path class="cls-43" d="M677,1528.37l.09,0,.22.06-.3-.09-.13,0,.13,0-.44-.11.3.09-.09,0c-.35-.11-.22-.06-.13,0l.55.11c.5.12.25.13,0,.06Z"/><polygon class="cls-46" points="677.41 1528.46 677.32 1528.44 677.1 1528.38 677.41 1528.46"/><path class="cls-43" d="M710.12,1524c.14-.72.75-.71,1.18-.46.07.44.46.69.52,1.15-.09,0-.79,0-.53.6.21-.53.52.27.58.69l-.25-.41c-.31.31-.07.71-.29,1.15l-.24-.42-.31.56C710.54,1525.85,710,1525.08,710.12,1524Z"/><path class="cls-43" d="M686.2,1525.88c-.12-.7-.63-1.29.21-1.85.5-.12.87.4,1,.73l.05,1-.1-.08-.44.38-.1-.08-.22.29C686.62,1526,686.33,1525.67,686.2,1525.88Z"/><path class="cls-46" d="M686.33,1524.91c-.18.13,0,.36-.07.49a.64.64,0,0,1-.25-.35c.17-.33.64-.12.87-.17.29.23,0,.74.19.88C686.86,1525.16,686.33,1525.67,686.33,1524.91Z"/><path class="cls-47" d="M686.7,1524.88c.05.08.1.16.19.11H687v.2h-.14v-.12l-.31.22Z"/><path class="cls-43" d="M710.09,1520.3c.07-.21.36-.08.54-.15.45.31.4.89.45,1.45-.21-.3,0-.52-.39-.75l-.44.29c.2.14.36.43.19.61A1.57,1.57,0,0,1,710.09,1520.3Z"/><path class="cls-43" d="M682.36,1522.19l.31-.2.37.48c-.05-.08-.11-.16-.2-.11l-.13.14.49.34c-.22.11-.07.3-.1.43l0-.29-.19,0,.08-.13-.48-.17.08,1C682.49,1523.2,682.13,1522.73,682.36,1522.19Z"/><path class="cls-43" d="M703.12,1470.73c-.78.06,0,.76-.13,1.11-.31-.14,0-.81-.59-.8a1,1,0,0,0,.23,1.12l0,.09c-.6-.35-.7-1.74-1.67-1.65.1.23-.14.61-.41.45-.39-.76-1.14-.75-1.6-1.42l-.07.41a12.5,12.5,0,0,1-1-2c-.48.83-.61-1.08-1.18-.65.29-.58.28-1.24-.15-1.36,0-1,.28-2.33,1.14-2.89a.57.57,0,0,1,.53-.32,1.62,1.62,0,0,0,.81,0l0,.21c.23-.06.61.18.67-.22a1.32,1.32,0,0,0,1,.61.78.78,0,0,1,1.1.45c.15.1.25,0,.34,0a.74.74,0,0,0,.48.46,9,9,0,0,0,2.47,2.45l-.32-.25-.25.34,1.08.48c-.42.08-1-.38-1.29.07s.34.64.53,1l-.36-.24c-.19.48.65.78.52,1.41-.84-.31-1,.31-1,1l.48,1.14A1.3,1.3,0,0,0,703.12,1470.73Z"/><path class="cls-43" d="M685.4,1516.69c.06.13.2.12.34.11.3-.22.18-.53.24-.82l-.34-.11c-.3.27.23.4-.17.58-.53-.18-.08-.79-.12-1.21.62-.35.74.45.74.82.24.49-.2.77-.3,1.16C685.72,1517.13,685.29,1517,685.4,1516.69Z"/><path class="cls-43" d="M686.45,1508.79c.19-.62.81-1.21,1.14-1,.27-.12.43.18.57.22.06-.61.53-1.34,1.2-.91.92,1.83-.27,3.54-.7,4.5l-.35-.31-.19.5A3.46,3.46,0,0,1,686.45,1508.79Z"/><path class="cls-43" d="M694,1508.52l0,.23c-.11-.32-.45-.48-.7-.75-.13.15-.26.25-.2.49l.1.09c-.19-.08-.05-.8-.59-.53l-.08.15c.08-1-.86-1.19-.76-2.17-.91-.76.1-1.77.07-2.46.37.06.52-.39.8-.58l1.9.07c.18.38.54.57,1,.89a2.39,2.39,0,0,1,1.38-1.23c1.08-.31,1.12.72,1.87,1-.29.4,0,.91.23,1.28l.19.21c-.84-.37-.54.86-.69,1.35l0,.31c-.2-.17-.17-.52-.49-.5l0,.75c-.05-.13-.06-.31-.26-.43l-.31.24c0-.18-.15-.21-.25-.3s-.23.15-.31.24l-.25-.35c-.26.28-.29.6-.76.49l-.12,1.1-.25-.31a.52.52,0,0,0-.2.57l.1.09-.34-.21,0,.79C694.68,1508.94,694.47,1507.89,694,1508.52Z"/><path class="cls-43" d="M712.39,1506.56l-.22.2c-.4-.49-1.58-.88-1.52-1.76-.06-.5.31-.77.64-1.12a4.07,4.07,0,0,1,2.54.46c-.23.29.43.91.36,1.37l.14.09-.33-.21c-.14.36-.27.75-.4,1.16C713.27,1506.58,712.77,1506.68,712.39,1506.56Z"/><polygon class="cls-46" points="696.35 1506.73 696.26 1506.73 696.25 1506.42 696.34 1506.41 696.35 1506.73"/><path class="cls-43" d="M693.58,1500.25c.09,0,.16.13.2.19-.16-.18-.63.11-.39.4C693.27,1500.67,693.25,1500.19,693.58,1500.25Z"/><path class="cls-43" d="M695.3,1496.56l-.15.05c0,.11-.14-.52-.5-.38-.27-.53.1-.83.45-1.18s.58-.75-.11-1.26c.63-.65.17-1.6,1.15-2,.78-.17,1.28.54,1.59,1.21l.3,1.09c-.18,0-.28.21-.23.36v.51c-.32-.18-.38,0-.41.24s-.08.58-.29.68v-.15c-.68,0-.42.85-1,1a2.14,2.14,0,0,1-.22.32C695.52,1497.09,695.52,1496.73,695.3,1496.56Z"/><path class="cls-43" d="M699.61,1482.79c0,.37-.32-.52-.47,0-.17-.52-.67-.25-.88-.59l-.06.12c0-.9-1.3-.22-1.08-1.69-.81-.32.17-1.15-.23-1.56a1.8,1.8,0,0,1,1.92-1.2c.87.2.34.23,1.32.61l.44.26c-.61.49,1,.34.36,1,.18.36.52.51.59,1a.33.33,0,0,0-.36,0c-.13.31.11.61.15.86H701l0,.65c-.09-.13-.23-.09-.36,0l0,.41C700.18,1483,699.88,1482,699.61,1482.79Z"/><polygon class="cls-46" points="699.55 1480.17 699.92 1480.94 699.67 1480.5 699.55 1480.17"/></g></g></svg>
